<svg width="8" height="8" viewBox="0 0 8 8" fill="none" xmlns="http://www.w3.org/2000/svg">
<path d="M7.31096 6.35083L7.31096 1.55781C7.30902 1.46859 7.28947 1.38064 7.25345 1.29899C7.18469 1.13436 7.05381 1.00347 6.88918 0.934719C6.80753 0.898696 6.71957 0.87915 6.63035 0.877202L1.83733 0.877202C1.74795 0.877202 1.65945 0.894806 1.57688 0.92901C1.4943 0.963214 1.41927 1.01335 1.35607 1.07655C1.22843 1.20419 1.15672 1.3773 1.15672 1.55781C1.15672 1.73832 1.22843 1.91144 1.35607 2.03907C1.48371 2.16671 1.65682 2.23842 1.83733 2.23842L4.99593 2.23363L0.878729 6.35083C0.75161 6.47795 0.680195 6.65036 0.680196 6.83013C0.680195 7.00991 0.751611 7.18232 0.878729 7.30944C1.00585 7.43656 1.17826 7.50797 1.35803 7.50797C1.5378 7.50797 1.71021 7.43656 1.83733 7.30944L5.95454 3.19223L5.94975 6.35083C5.94938 6.44032 5.96673 6.52898 6.00081 6.61172C6.03488 6.69447 6.085 6.76964 6.14827 6.83291C6.21155 6.89619 6.28672 6.94631 6.36946 6.98038C6.4522 7.01446 6.54087 7.03181 6.63035 7.03144C6.71984 7.03181 6.80851 7.01446 6.89125 6.98038C6.97399 6.94631 7.04916 6.89619 7.11244 6.83291C7.17571 6.76964 7.22583 6.69447 7.2599 6.61172C7.29398 6.52898 7.31133 6.44031 7.31096 6.35083Z" fill="white"/>
</svg>
