<svg width="22" height="22" viewBox="0 0 22 22" fill="none" xmlns="http://www.w3.org/2000/svg">
<rect x="1" y="1.44629" width="20" height="20" rx="10" stroke="black"/>
<path d="M15.0211 14.219L14.798 8.55443C14.7915 8.4489 14.7643 8.34404 14.7179 8.24587C14.629 8.0481 14.4682 7.88732 14.2705 7.79841C14.1723 7.75203 14.0675 7.72484 13.9619 7.71838L8.29738 7.49521C8.19175 7.49105 8.08797 7.50774 7.99198 7.54431C7.89598 7.58089 7.80964 7.63665 7.73789 7.7084C7.59299 7.8533 7.5163 8.05456 7.52471 8.26789C7.53311 8.48122 7.62592 8.68915 7.78271 8.84594C7.9395 9.00273 8.14743 9.09554 8.36076 9.10394L12.0935 9.24534L7.41933 13.9195C7.27502 14.0638 7.19864 14.2642 7.20701 14.4767C7.21539 14.6892 7.30781 14.8962 7.46396 15.0524C7.62012 15.2085 7.8272 15.301 8.03966 15.3093C8.25212 15.3177 8.45256 15.2413 8.59687 15.097L13.271 10.4229L13.4124 14.1556C13.4161 14.2613 13.4408 14.3669 13.4849 14.4663C13.529 14.5657 13.5918 14.6568 13.6695 14.7346C13.7472 14.8123 13.8384 14.875 13.9378 14.9192C14.0371 14.9633 14.1427 14.9879 14.2485 14.9916C14.3542 14.9962 14.4582 14.9799 14.5544 14.9434C14.6506 14.907 14.7371 14.8513 14.809 14.7795C14.8808 14.7076 14.9365 14.6211 14.9729 14.5249C15.0094 14.4287 15.0257 14.3247 15.0211 14.219Z" fill="black"/>
</svg>
