<svg width="27" height="27" viewBox="0 0 27 27" fill="none" xmlns="http://www.w3.org/2000/svg">
<path d="M0.782715 8.50902V6.00081C0.782715 4.24505 0.782715 3.36718 1.12383 2.69623C1.42447 2.10599 1.90433 1.62613 2.49457 1.32549C3.16552 0.984375 4.04339 0.984375 5.79915 0.984375C7.5549 0.984375 8.43277 0.984375 9.10372 1.32549C9.69396 1.62613 10.1738 2.10599 10.4745 2.69623C10.8156 3.36718 10.8156 4.24505 10.8156 6.00081V21.0501C10.8156 22.8058 10.8156 23.6837 10.4745 24.3547C10.1736 24.9444 9.69377 25.4238 9.10372 25.7242C8.43277 26.0665 7.5549 26.0665 5.79915 26.0665C4.04339 26.0665 3.16552 26.0665 2.49457 25.7242C1.90452 25.4238 1.42469 24.9444 1.12383 24.3547C0.782715 23.6837 0.782715 22.8058 0.782715 21.0501V13.5255M7.05325 22.3042H4.54504" stroke="white" stroke-width="1.25411" stroke-linecap="round"/>
<path d="M14.972 4.65795L12.2857 7.34425C11.5609 8.06912 11.1984 8.43156 11.0065 8.89307C10.8159 9.35333 10.8159 9.86626 10.8159 10.8921V23.0018L22.0653 11.7524C23.3068 10.5109 23.9289 9.89009 24.1609 9.17399C24.3655 8.54433 24.3655 7.86606 24.1609 7.23639C23.9289 6.52155 23.3081 5.89952 22.0665 4.65795C20.825 3.41638 20.2029 2.7956 19.4881 2.56359C18.8584 2.35901 18.1801 2.35901 17.5505 2.56359C16.8344 2.7956 16.2136 3.41638 14.972 4.65795Z" stroke="white" stroke-width="1.25411"/>
<path d="M20.4302 25.5439V26.5889H20.0122V25.5439H20.4302ZM14.1597 25.5439V26.5889H6.21729V25.5439H14.1597ZM24.0024 26.3496C23.7979 26.4174 23.5823 26.4666 23.3501 26.5L22.9507 26.5439C22.4933 26.5812 21.9415 26.5848 21.2671 26.5859V25.541C21.7385 25.5402 22.1297 25.5395 22.4644 25.5264L22.8638 25.5039H22.8647C23.1293 25.4825 23.3414 25.4477 23.52 25.4023L24.0024 26.3496ZM14.9966 25.7559C15.063 25.8454 15.1011 25.9536 15.1011 26.0664C15.101 26.1789 15.0627 26.2866 14.9966 26.376V25.7559ZM19.1763 26.376C19.1101 26.2866 19.0718 26.179 19.0718 26.0664C19.0718 25.9536 19.1098 25.8454 19.1763 25.7559V26.376ZM25.2905 24.7051L25.7739 24.9512C25.5043 25.3579 25.1577 25.7057 24.7515 25.9756L24.2729 25.0381C24.4889 24.8801 24.6783 24.6895 24.8364 24.4736L25.2905 24.7051ZM26.3853 21.4678C26.3847 21.9406 26.3835 22.3525 26.3687 22.7139L26.3423 23.1504V23.1523C26.3111 23.5419 26.2539 23.8865 26.1489 24.2031L25.4722 23.8594L25.2007 23.7197C25.2455 23.5412 25.2799 23.33 25.3013 23.0664C25.3363 22.6523 25.3395 22.1406 25.3403 21.4678H26.3853ZM26.1479 17.8955C26.2158 18.1001 26.2649 18.3156 26.2983 18.5479L26.3423 18.9473V18.9482C26.3796 19.4057 26.3842 19.9573 26.3853 20.6318H25.3403C25.3396 20.1599 25.3378 19.7684 25.3247 19.4336L25.3022 19.0342V19.0332L25.2651 18.6973C25.2479 18.579 25.2251 18.4739 25.2007 18.3779L26.1479 17.8955ZM24.7505 16.123C25.1571 16.3928 25.505 16.7404 25.7749 17.1465L24.8374 17.625C24.6794 17.4089 24.4889 17.2187 24.2729 17.0605L24.7505 16.123ZM21.2671 15.5117C21.7395 15.5123 22.1511 15.5144 22.5122 15.5293L22.9497 15.5557H22.9507C23.34 15.5868 23.685 15.6441 24.0015 15.749L23.519 16.6973C23.3403 16.6524 23.1287 16.619 22.8647 16.5977H22.8657C22.4517 16.5626 21.9398 16.5575 21.2671 16.5566V15.5117ZM20.4302 15.5107V16.5557H18.1313V15.5107H20.4302Z" stroke="white" stroke-width="0.836072"/>
</svg>
