<svg width="26" height="24" viewBox="0 0 26 24" fill="none" xmlns="http://www.w3.org/2000/svg">
<path d="M24.7579 12.6953H24.0258C23.8882 8.1887 21.3113 4.42004 17.4695 2.73923H22.2689V3.47129C22.2689 3.58778 22.3151 3.69951 22.3975 3.78188C22.4799 3.86425 22.5916 3.91053 22.7081 3.91053C22.8246 3.91053 22.9363 3.86425 23.0187 3.78188C23.1011 3.69951 23.1473 3.58778 23.1473 3.47129V1.12869C23.1473 1.0122 23.1011 0.900476 23.0187 0.818103C22.9363 0.73573 22.8246 0.689453 22.7081 0.689453C22.5916 0.689453 22.4799 0.73573 22.3975 0.818103C22.3151 0.900476 22.2689 1.0122 22.2689 1.12869V1.86075H14.3626V1.12869C14.3626 1.0122 14.3163 0.900476 14.2339 0.818103C14.1516 0.73573 14.0398 0.689453 13.9233 0.689453H11.5807C11.4643 0.689453 11.3525 0.73573 11.2702 0.818103C11.1878 0.900476 11.1415 1.0122 11.1415 1.12869V1.86075H3.23523V1.12869C3.23523 1.0122 3.18896 0.900476 3.10659 0.818103C3.02421 0.73573 2.91249 0.689453 2.796 0.689453C2.6795 0.689453 2.56778 0.73573 2.48541 0.818103C2.40304 0.900476 2.35676 1.0122 2.35676 1.12869V3.47129C2.35676 3.58778 2.40304 3.69951 2.48541 3.78188C2.56778 3.86425 2.6795 3.91053 2.796 3.91053C2.91249 3.91053 3.02421 3.86425 3.10659 3.78188C3.18896 3.69951 3.23523 3.58778 3.23523 3.47129V2.73923H8.02C6.00714 3.5973 4.28838 5.02402 3.07439 6.84448C1.8604 8.66495 1.20393 10.8001 1.18546 12.9881H0.453398C0.336905 12.9881 0.225183 13.0344 0.14281 13.1168C0.0604368 13.1991 0.0141602 13.3108 0.0141602 13.4273V15.7699C0.0141602 15.8864 0.0604368 15.9982 0.14281 16.0805C0.225183 16.1629 0.336905 16.2092 0.453398 16.2092H2.796C2.91249 16.2092 3.02421 16.1629 3.10659 16.0805C3.18896 15.9982 3.23523 15.8864 3.23523 15.7699V13.4273C3.23523 13.3108 3.18896 13.1991 3.10659 13.1168C3.02421 13.0344 2.91249 12.9881 2.796 12.9881H2.06394C2.09325 10.4784 3.02779 8.06376 4.69563 6.18824C6.36348 4.31273 8.65245 3.10251 11.1415 2.78022V3.47129C11.1415 3.58778 11.1878 3.69951 11.2702 3.78188C11.3525 3.86425 11.4643 3.91053 11.5807 3.91053H12.3362L7.77695 15.48C7.73843 15.5809 7.73843 15.6925 7.77695 15.7934L9.41091 20.2414L9.38456 23.0876C9.38417 23.1456 9.39525 23.203 9.41715 23.2566C9.43905 23.3103 9.47134 23.359 9.51217 23.4001C9.55299 23.4412 9.60155 23.4738 9.65503 23.4961C9.70851 23.5183 9.76587 23.5298 9.8238 23.5298H15.3875C15.504 23.5298 15.6157 23.4835 15.6981 23.4012C15.7804 23.3188 15.8267 23.2071 15.8267 23.0906V20.256L17.8208 15.8197C17.8438 15.7655 17.8556 15.7073 17.8556 15.6484C17.8556 15.5896 17.8438 15.5313 17.8208 15.4771L13.1679 3.91053H13.9233C14.0398 3.91053 14.1516 3.86425 14.2339 3.78188C14.3163 3.69951 14.3626 3.58778 14.3626 3.47129V2.78022C19.3406 3.46251 22.9687 7.55327 23.1473 12.6953H22.4153C22.2988 12.6953 22.1871 12.7416 22.1047 12.8239C22.0223 12.9063 21.976 13.018 21.976 13.1345V15.4771C21.976 15.5936 22.0223 15.7053 22.1047 15.7877C22.1871 15.8701 22.2988 15.9164 22.4153 15.9164H24.7579C24.8744 15.9164 24.9861 15.8701 25.0685 15.7877C25.1508 15.7053 25.1971 15.5936 25.1971 15.4771V13.1345C25.1971 13.018 25.1508 12.9063 25.0685 12.8239C24.9861 12.7416 24.8744 12.6953 24.7579 12.6953ZM2.35676 15.3307H0.892635V13.8666H2.35676V15.3307ZM10.263 22.6513L10.2806 20.6016H14.9482V22.6513H10.263ZM15.1034 19.7231H10.1547L8.65543 15.647L12.3128 6.36733V14.3058C12.3128 14.4223 12.3591 14.534 12.4415 14.6164C12.5238 14.6988 12.6356 14.7451 12.752 14.7451C12.8685 14.7451 12.9803 14.6988 13.0626 14.6164C13.145 14.534 13.1913 14.4223 13.1913 14.3058V6.32341L16.9424 15.6235L15.1034 19.7231ZM13.4841 3.03205H12.02V1.56793H13.4841V3.03205ZM24.3186 15.0379H22.8545V13.5738H24.3186V15.0379Z" fill="white"/>
</svg>
