<svg width="22" height="22" viewBox="0 0 22 22" fill="none" xmlns="http://www.w3.org/2000/svg">
<path d="M11.142 1.87793C6.23874 1.87793 2.25928 5.85739 2.25928 10.7606C2.25928 15.6639 6.23874 19.6434 11.142 19.6434H15.5834V17.8668H11.142C7.2869 17.8668 4.03582 14.6158 4.03582 10.7606C4.03582 6.90555 7.2869 3.65447 11.142 3.65447C14.9971 3.65447 18.2482 6.90555 18.2482 10.7606V12.0309C18.2482 12.7326 17.6175 13.4255 16.9158 13.4255C16.214 13.4255 15.5834 12.7326 15.5834 12.0309V10.7606C15.5834 8.30902 13.5936 6.31929 11.142 6.31929C8.69037 6.31929 6.70064 8.30902 6.70064 10.7606C6.70064 13.2123 8.69037 15.202 11.142 15.202C12.3678 15.202 13.487 14.7046 14.2865 13.8962C14.8639 14.6868 15.8587 15.202 16.9158 15.202C18.6657 15.202 20.0247 13.7808 20.0247 12.0309V10.7606C20.0247 5.85739 16.0453 1.87793 11.142 1.87793ZM11.142 13.4255C9.66747 13.4255 8.47718 12.2352 8.47718 10.7606C8.47718 9.28612 9.66747 8.09583 11.142 8.09583C12.6165 8.09583 13.8068 9.28612 13.8068 10.7606C13.8068 12.2352 12.6165 13.4255 11.142 13.4255Z" fill="#4B4B4B"/>
</svg>
