<svg width="166" height="42" viewBox="0 0 166 42" fill="none" xmlns="http://www.w3.org/2000/svg">
<path d="M32.9395 8.06343H43.5777V9.35821L40.0783 10.1631V32.2443L43.5777 33.0142V34.309H32.9395V33.0142L36.4039 32.2093V10.1981V9.24049L32.9395 8.06343Z" fill="url(#paint0_linear_473_6319)"/>
<path d="M0.654297 8.06343H11.2925V9.35821L7.82808 10.1631V32.7692H16.7866L18.3622 33.1943L18.411 27.6951H19.971V34.309H0.654297V33.0142L4.1537 32.2093V10.1981L0.654297 9.35821V8.06343Z" fill="url(#paint1_linear_473_6319)"/>
<path d="M28.8954 8.06343H37.7839V9.35821L34.6694 10.1281L25.151 19.0866L36.0342 32.2443L36.4039 32.2093L40.1402 34.309H32.8147L22.0366 21.0812V33.2645L32.9395 33.0142V34.309H14.8978V33.0142L18.3622 33.1943L18.5851 8.06343L14.8978 9.35821L15.2355 8.45347L25.536 8.06343V9.35821L22.0366 8.19597V20.3813L31.6249 10.0231L28.8954 9.35821V8.06343Z" fill="url(#paint2_linear_473_6319)"/>
<path d="M29.6468 20.8064C29.6468 16.7237 28.9119 13.6443 27.4421 11.5679C25.9957 9.49163 23.8961 8.45347 21.1432 8.45347C18.4137 8.45347 16.3373 9.51496 14.9142 11.6379C13.4912 13.7609 12.7796 16.8171 12.7796 20.8064C12.7796 24.7957 13.4678 27.8635 14.8443 30.0098C16.244 32.1328 18.3087 33.1943 21.0382 33.1943C23.7677 33.1943 25.8791 32.1445 27.3721 30.0448C28.8885 27.9452 29.6468 24.8657 29.6468 20.8064ZM8.7203 20.8414C8.7203 16.6188 9.88677 13.271 12.2197 10.7981C14.5526 8.30183 17.5505 7.05371 21.2132 7.05371C24.8992 7.05371 27.8854 8.32516 30.1717 10.8681C32.4813 13.411 33.6361 16.7471 33.6361 20.8764C33.6361 25.0057 32.4929 28.3301 30.2067 30.8497C27.9204 33.3459 24.7942 34.309 21.0382 34.309C17.2822 34.309 14.3777 33.3576 12.1147 30.8847C9.85177 28.3884 8.7203 25.0407 8.7203 20.8414Z" fill="url(#paint3_linear_473_6319)"/>
<path d="M54.8805 7.83118H62.2699V8.73054L59.8635 9.28961V24.992H66.0861L67.0341 21.4675H68.298V26.0615H54.8805V25.1622L57.3112 24.6031V9.31392L54.8805 8.73054V7.83118ZM84.7097 16.9464C84.7097 14.1105 84.1993 11.9715 83.1784 10.5293C82.1737 9.08705 80.7152 8.36594 78.8031 8.36594C76.9071 8.36594 75.4649 9.10325 74.4764 10.5779C73.4879 12.0525 72.9937 14.1753 72.9937 16.9464C72.9937 19.7174 73.4717 21.8483 74.4278 23.3391C75.4001 24.8138 76.8342 25.5511 78.7302 25.5511C80.6261 25.5511 82.0927 24.8219 83.1298 23.3634C84.1831 21.905 84.7097 19.766 84.7097 16.9464ZM70.1741 16.9707C70.1741 14.0376 70.9843 11.7122 72.6048 9.99452C74.2252 8.26061 76.3076 7.39365 78.8517 7.39365C81.4121 7.39365 83.4863 8.27681 85.0743 10.0431C86.6786 11.8094 87.4807 14.1267 87.4807 16.995C87.4807 19.8632 86.6867 22.1724 85.0986 23.9225C83.5106 25.6564 81.4121 26.5234 78.8031 26.5234C76.1941 26.5234 74.1037 25.6645 72.5318 23.9468C70.96 22.2129 70.1741 19.8875 70.1741 16.9707ZM100.85 7.83118H107.024V8.73054L104.861 9.2653L98.2495 15.4879L105.809 24.6274L108.677 25.1622V26.0615H103.573L96.0862 16.8734V24.6274L98.5169 25.1622V26.0615H91.1276V25.1622L93.534 24.6031V9.31392L91.1276 8.73054V7.83118H98.5169V8.73054L96.0862 9.28961V16.3873L102.746 9.19238L100.85 8.73054V7.83118ZM112.088 7.83118H119.477V8.73054L117.046 9.28961V24.6274L119.477 25.1622V26.0615H112.088V25.1622L114.494 24.6031V9.31392L112.088 8.73054V7.83118Z" fill="#4B4B4B"/>
<path d="M53.2056 32.3698H54.8976C55.9572 32.3698 56.4871 32.7174 56.4871 33.4124C56.4871 33.6934 56.3978 33.9175 56.2193 34.0846C56.0408 34.2517 55.7559 34.3638 55.3648 34.4208C56.1889 34.4929 56.601 34.8556 56.601 35.5089C56.601 35.8127 56.4966 36.0672 56.2877 36.2723C56.1357 36.4242 55.9534 36.5248 55.7408 36.5742C55.5281 36.6198 55.2147 36.6426 54.8008 36.6426H53.2056V36.4318L53.7525 36.3065V32.7117L53.2056 32.5806V32.3698ZM54.345 36.4147H54.7951C55.2014 36.4147 55.4958 36.3425 55.6781 36.1982C55.8604 36.0539 55.9515 35.8203 55.9515 35.4975C55.9515 35.1747 55.8623 34.9392 55.6838 34.7911C55.5091 34.6391 55.2299 34.5632 54.8463 34.5632H54.345V36.4147ZM54.345 34.3239H54.8008C55.4996 34.3239 55.849 34.0239 55.849 33.4238C55.849 33.082 55.7313 32.856 55.4958 32.7458C55.2945 32.6471 55.0153 32.5977 54.6583 32.5977H54.345V34.3239ZM59.5782 35.6798V36.3292C59.3617 36.5761 59.0123 36.6995 58.5299 36.6995C58.0514 36.6995 57.6963 36.5742 57.4646 36.3235C57.2329 36.0691 57.1171 35.7178 57.1171 35.2696C57.1171 34.8214 57.2386 34.4701 57.4817 34.2157C57.7285 33.9574 58.059 33.8283 58.4729 33.8283C58.7198 33.8283 58.9249 33.8738 59.0882 33.965C59.2553 34.0561 59.375 34.1777 59.4471 34.3296C59.5611 34.5803 59.618 34.8442 59.618 35.1215H57.6868C57.6868 35.5507 57.7361 35.8773 57.8349 36.1014C57.9488 36.3558 58.1729 36.4831 58.5071 36.4831C58.6249 36.4831 58.7369 36.4679 58.8433 36.4375C58.9534 36.4033 59.0332 36.371 59.0825 36.3406C59.1319 36.3103 59.1566 36.2913 59.1566 36.2837L59.3674 35.6798H59.5782ZM58.4616 34.0505C58.1387 34.0505 57.9184 34.1986 57.8007 34.4948C57.7437 34.6277 57.7096 34.774 57.6982 34.9335H59.1224C59.1224 34.3448 58.9021 34.0505 58.4616 34.0505ZM62.0286 33.8738H63.225V34.0903L62.7749 34.1587L61.59 37.0755C61.4266 37.4629 61.2918 37.7155 61.1855 37.8332C61.0791 37.951 60.9044 38.0099 60.6613 38.0099H60.4107V37.1781H60.6215L60.7639 37.6908C60.8816 37.6832 60.9671 37.6509 61.0203 37.594C61.0734 37.5408 61.1133 37.499 61.1399 37.4686C61.1665 37.4383 61.1969 37.3832 61.231 37.3034C61.269 37.2275 61.2956 37.1686 61.3108 37.1268C61.3298 37.085 61.3602 37.0091 61.402 36.8989C61.4437 36.7888 61.476 36.7071 61.4988 36.654L60.4107 34.1929L59.9378 34.0903V33.8795H61.3849V34.0903L60.9975 34.1701L61.778 36.0159L62.4673 34.1644L62.0286 34.0903V33.8738ZM65.8138 35.281C65.8138 34.8708 65.7512 34.567 65.6258 34.3695C65.5005 34.1682 65.2954 34.0675 65.0105 34.0675C64.7295 34.0675 64.5206 34.1644 64.3839 34.3581C64.2509 34.548 64.1845 34.8537 64.1845 35.2753C64.1845 35.6969 64.2509 36.0007 64.3839 36.1868C64.5168 36.3691 64.72 36.4603 64.9935 36.4603C65.2707 36.4603 65.4758 36.3672 65.6087 36.1811C65.7455 35.9912 65.8138 35.6912 65.8138 35.281ZM63.6091 35.281C63.6091 34.8328 63.7363 34.4796 63.9908 34.2214C64.2453 33.9593 64.5814 33.8283 64.9992 33.8283C65.4207 33.8283 65.7569 33.9555 66.0075 34.21C66.2582 34.4644 66.3835 34.8195 66.3835 35.2753C66.3835 35.7311 66.2582 36.0824 66.0075 36.3292C65.7569 36.5723 65.4188 36.6939 64.9935 36.6939C64.5719 36.6939 64.2358 36.5704 63.9851 36.3235C63.7344 36.0767 63.6091 35.7292 63.6091 35.281ZM67.0388 33.8738H67.9618V34.6771C68.1137 34.115 68.4517 33.834 68.9758 33.834C69.2835 33.834 69.5113 33.9289 69.6595 34.1188C69.8076 34.3049 69.8816 34.5632 69.8816 34.8936V36.3065L70.3203 36.4318V36.6426H68.9701V36.4318L69.3518 36.3179V34.962C69.3518 34.6543 69.31 34.434 69.2265 34.3011C69.1467 34.1682 69.0195 34.1017 68.8448 34.1017C68.5751 34.1017 68.3662 34.2309 68.2181 34.4891C68.0738 34.7436 68.0016 35.1272 68.0016 35.6399V36.3179L68.4004 36.4318V36.6426H67.0388V36.4318L67.4604 36.3122V34.1587L67.0388 34.0789V33.8738ZM72.636 32.3698H73.5931V36.3122L74.0773 36.4318V36.6426H73.0861V35.9931C72.9493 36.4641 72.6246 36.6995 72.1119 36.6995C71.7549 36.6995 71.4662 36.5761 71.2459 36.3292C71.0295 36.0824 70.9212 35.733 70.9212 35.281C70.9212 34.8252 71.0295 34.4701 71.2459 34.2157C71.4662 33.9612 71.753 33.834 72.1062 33.834C72.3606 33.834 72.5714 33.8947 72.7385 34.0163C72.9095 34.1378 73.0177 34.2973 73.0633 34.4948V32.6604L72.636 32.5749V32.3698ZM72.203 34.0903C71.7321 34.0903 71.4966 34.4834 71.4966 35.2696C71.4966 36.052 71.734 36.4432 72.2087 36.4432C72.4632 36.4432 72.6721 36.3368 72.8354 36.1242C73.0025 35.9115 73.0861 35.6266 73.0861 35.2696C73.0861 34.9126 73.0025 34.6277 72.8354 34.4151C72.6721 34.1986 72.4613 34.0903 72.203 34.0903ZM76.2494 32.3698H77.9414C79.0011 32.3698 79.5309 32.7174 79.5309 33.4124C79.5309 33.6934 79.4417 33.9175 79.2631 34.0846C79.0846 34.2517 78.7998 34.3638 78.4086 34.4208C79.2328 34.4929 79.6448 34.8556 79.6448 35.5089C79.6448 35.8127 79.5404 36.0672 79.3315 36.2723C79.1796 36.4242 78.9973 36.5248 78.7846 36.5742C78.5719 36.6198 78.2586 36.6426 77.8446 36.6426H76.2494V36.4318L76.7964 36.3065V32.7117L76.2494 32.5806V32.3698ZM77.3888 36.4147H77.8389C78.2453 36.4147 78.5396 36.3425 78.7219 36.1982C78.9042 36.0539 78.9954 35.8203 78.9954 35.4975C78.9954 35.1747 78.9061 34.9392 78.7276 34.7911C78.5529 34.6391 78.2738 34.5632 77.8902 34.5632H77.3888V36.4147ZM77.3888 34.3239H77.8446C78.5434 34.3239 78.8928 34.0239 78.8928 33.4238C78.8928 33.082 78.7751 32.856 78.5396 32.7458C78.3383 32.6471 78.0592 32.5977 77.7022 32.5977H77.3888V34.3239ZM80.2122 33.8795H81.1579V34.6885C81.2338 34.4606 81.3516 34.2707 81.5111 34.1188C81.6706 33.9631 81.8643 33.8852 82.0922 33.8852C82.2327 33.8852 82.4017 33.9365 82.5992 34.0391V34.7227H82.377L82.2004 34.2555C82.1283 34.2176 82.0466 34.1986 81.9555 34.1986C81.7883 34.1986 81.6193 34.2973 81.4484 34.4948C81.2813 34.6885 81.1978 34.8974 81.1978 35.1215V36.3122L81.6193 36.4318V36.6426H80.2236V36.4318L80.6565 36.3122V34.1644L80.2122 34.0846V33.8795ZM85.7454 36.6426H84.7428V36.0672C84.5642 36.485 84.2509 36.6939 83.8028 36.6939C83.5027 36.6939 83.2748 36.6293 83.1191 36.5002C82.9634 36.3672 82.8855 36.183 82.8855 35.9475C82.8855 35.6133 83.0318 35.3741 83.3242 35.2297C83.6204 35.0816 84.0895 35.0018 84.7314 34.9905V34.7455C84.7314 34.4758 84.6763 34.2935 84.5661 34.1986C84.456 34.0998 84.2927 34.0505 84.0762 34.0505C83.8597 34.0505 83.6717 34.0998 83.5122 34.1986L83.3242 34.7626H83.1134V34.1188C83.2084 34.0391 83.3394 33.9726 83.5065 33.9194C83.6736 33.8625 83.8559 33.834 84.0534 33.834C84.456 33.834 84.7579 33.9118 84.9592 34.0675C85.1643 34.2195 85.2669 34.491 85.2669 34.8822V36.3008L85.7454 36.4318V36.6426ZM83.9509 36.4546C84.1939 36.4546 84.3838 36.3615 84.5206 36.1754C84.6611 35.9855 84.7314 35.657 84.7314 35.1898C84.0781 35.1898 83.6793 35.2905 83.535 35.4918C83.4666 35.5867 83.4324 35.7273 83.4324 35.9134C83.4324 36.0995 83.4723 36.2362 83.5521 36.3235C83.6356 36.4109 83.7686 36.4546 83.9509 36.4546ZM86.3552 33.8738H87.2781V34.6771C87.43 34.115 87.768 33.834 88.2922 33.834C88.5998 33.834 88.8277 33.9289 88.9758 34.1188C89.1239 34.3049 89.198 34.5632 89.198 34.8936V36.3065L89.6366 36.4318V36.6426H88.2865V36.4318L88.6682 36.3179V34.962C88.6682 34.6543 88.6264 34.434 88.5428 34.3011C88.4631 34.1682 88.3358 34.1017 88.1611 34.1017C87.8915 34.1017 87.6826 34.2309 87.5345 34.4891C87.3901 34.7436 87.318 35.1272 87.318 35.6399V36.3179L87.7168 36.4318V36.6426H86.3552V36.4318L86.7768 36.3122V34.1587L86.3552 34.0789V33.8738ZM91.9523 32.3698H92.9094V36.3122L93.3937 36.4318V36.6426H92.4024V35.9931C92.2657 36.4641 91.9409 36.6995 91.4282 36.6995C91.0712 36.6995 90.7825 36.5761 90.5623 36.3292C90.3458 36.0824 90.2375 35.733 90.2375 35.281C90.2375 34.8252 90.3458 34.4701 90.5623 34.2157C90.7825 33.9612 91.0693 33.834 91.4225 33.834C91.677 33.834 91.8878 33.8947 92.0549 34.0163C92.2258 34.1378 92.334 34.2973 92.3796 34.4948V32.6604L91.9523 32.5749V32.3698ZM91.5194 34.0903C91.0484 34.0903 90.8129 34.4834 90.8129 35.2696C90.8129 36.052 91.0503 36.4432 91.5251 36.4432C91.7795 36.4432 91.9884 36.3368 92.1517 36.1242C92.3188 35.9115 92.4024 35.6266 92.4024 35.2696C92.4024 34.9126 92.3188 34.6277 92.1517 34.4151C91.9884 34.1986 91.7776 34.0903 91.5194 34.0903ZM95.8891 35.8279C95.8891 36.0824 95.7941 36.2875 95.6042 36.4432C95.4143 36.5951 95.1219 36.6711 94.7269 36.6711C94.3357 36.6711 94.03 36.5666 93.8097 36.3577V35.6969H94.0319L94.1971 36.2552C94.33 36.3881 94.5427 36.4546 94.8351 36.4546C95.0402 36.4546 95.1959 36.409 95.3023 36.3179C95.4086 36.2267 95.4618 36.1166 95.4618 35.9874C95.4618 35.8583 95.4067 35.7576 95.2966 35.6855C95.1864 35.6133 94.9681 35.526 94.6414 35.4234C94.3186 35.3171 94.0926 35.2069 93.9635 35.093C93.8344 34.9791 93.7698 34.81 93.7698 34.586C93.7698 34.3581 93.8628 34.1701 94.049 34.022C94.2351 33.8738 94.5085 33.7998 94.8693 33.7998C95.2301 33.7998 95.5207 33.8852 95.741 34.0561V34.7113H95.5188L95.3422 34.1644C95.2168 34.0656 95.0497 34.0163 94.8408 34.0163C94.4269 34.0163 94.2199 34.1644 94.2199 34.4606C94.2199 34.5708 94.2787 34.6676 94.3965 34.7512C94.518 34.8309 94.7383 34.9202 95.0573 35.0189C95.3763 35.1177 95.5947 35.2297 95.7125 35.3551C95.8302 35.4766 95.8891 35.6342 95.8891 35.8279ZM96.5484 37.4402H96.2863L96.6053 36.0045H97.3289L96.5484 37.4402ZM104.906 32.3698H106.302V32.5749L105.806 32.7231L104.433 36.6426H104.092L102.85 33.1161L101.63 36.6426H101.289L99.9498 32.7117L99.4257 32.5806V32.3698H101.158V32.5806L100.582 32.706L101.63 35.8393L102.821 32.3698H103.174L104.428 35.8906L105.408 32.7117L104.906 32.5749V32.3698ZM109.021 35.6798V36.3292C108.804 36.5761 108.455 36.6995 107.972 36.6995C107.494 36.6995 107.139 36.5742 106.907 36.3235C106.675 36.0691 106.56 35.7178 106.56 35.2696C106.56 34.8214 106.681 34.4701 106.924 34.2157C107.171 33.9574 107.501 33.8283 107.915 33.8283C108.162 33.8283 108.367 33.8738 108.531 33.965C108.698 34.0561 108.817 34.1777 108.89 34.3296C109.004 34.5803 109.06 34.8442 109.06 35.1215H107.129C107.129 35.5507 107.179 35.8773 107.277 36.1014C107.391 36.3558 107.615 36.4831 107.95 36.4831C108.067 36.4831 108.179 36.4679 108.286 36.4375C108.396 36.4033 108.476 36.371 108.525 36.3406C108.574 36.3103 108.599 36.2913 108.599 36.2837L108.81 35.6798H109.021ZM107.904 34.0505C107.581 34.0505 107.361 34.1986 107.243 34.4948C107.186 34.6277 107.152 34.774 107.141 34.9335H108.565C108.565 34.3448 108.345 34.0505 107.904 34.0505ZM111.522 32.3698H113.214C114.273 32.3698 114.803 32.7174 114.803 33.4124C114.803 33.6934 114.714 33.9175 114.535 34.0846C114.357 34.2517 114.072 34.3638 113.681 34.4208C114.505 34.4929 114.917 34.8556 114.917 35.5089C114.917 35.8127 114.813 36.0672 114.604 36.2723C114.452 36.4242 114.27 36.5248 114.057 36.5742C113.844 36.6198 113.531 36.6426 113.117 36.6426H111.522V36.4318L112.069 36.3065V32.7117L111.522 32.5806V32.3698ZM112.661 36.4147H113.111C113.518 36.4147 113.812 36.3425 113.994 36.1982C114.177 36.0539 114.268 35.8203 114.268 35.4975C114.268 35.1747 114.178 34.9392 114 34.7911C113.825 34.6391 113.546 34.5632 113.162 34.5632H112.661V36.4147ZM112.661 34.3239H113.117C113.816 34.3239 114.165 34.0239 114.165 33.4238C114.165 33.082 114.047 32.856 113.812 32.7458C113.611 32.6471 113.332 32.5977 112.974 32.5977H112.661V34.3239ZM115.382 33.8795H116.328V35.5829C116.328 35.883 116.366 36.0957 116.442 36.221C116.521 36.3463 116.65 36.409 116.829 36.409C117.095 36.409 117.304 36.2837 117.456 36.033C117.608 35.7823 117.684 35.3987 117.684 34.8822V34.1644L117.268 34.0903V33.8795H118.213V36.3008L118.663 36.4318V36.6426H117.718V35.8735C117.619 36.1431 117.48 36.3501 117.302 36.4945C117.127 36.635 116.935 36.7052 116.726 36.7052C116.104 36.7052 115.792 36.3634 115.792 35.6798V34.1644L115.382 34.0903V33.8795ZM119.044 33.8795H119.967V36.3179L120.365 36.4318V36.6426H119.015V36.4318L119.431 36.3065V34.153L119.044 34.0846V33.8795ZM119.232 32.6661C119.232 32.5635 119.264 32.4838 119.329 32.4268C119.397 32.366 119.486 32.3357 119.596 32.3357C119.71 32.3357 119.801 32.366 119.87 32.4268C119.938 32.4838 119.972 32.5635 119.972 32.6661C119.972 32.7648 119.94 32.8446 119.876 32.9054C119.811 32.9661 119.72 32.9965 119.602 32.9965C119.488 32.9965 119.397 32.968 119.329 32.9111C119.264 32.8503 119.232 32.7686 119.232 32.6661ZM120.971 32.3698H121.922V36.3065L122.384 36.4318V36.6426H120.937V36.4318L121.381 36.3122V32.6433L120.971 32.5749V32.3698ZM124.61 32.3698H125.567V36.3122L126.051 36.4318V36.6426H125.06V35.9931C124.923 36.4641 124.598 36.6995 124.086 36.6995C123.729 36.6995 123.44 36.5761 123.22 36.3292C123.003 36.0824 122.895 35.733 122.895 35.281C122.895 34.8252 123.003 34.4701 123.22 34.2157C123.44 33.9612 123.727 33.834 124.08 33.834C124.334 33.834 124.545 33.8947 124.712 34.0163C124.883 34.1378 124.992 34.2973 125.037 34.4948V32.6604L124.61 32.5749V32.3698ZM124.177 34.0903C123.706 34.0903 123.47 34.4834 123.47 35.2696C123.47 36.052 123.708 36.4432 124.183 36.4432C124.437 36.4432 124.646 36.3368 124.809 36.1242C124.976 35.9115 125.06 35.6266 125.06 35.2696C125.06 34.9126 124.976 34.6277 124.809 34.4151C124.646 34.1986 124.435 34.0903 124.177 34.0903ZM129.46 36.6939C129.019 36.6939 128.578 36.5571 128.138 36.2837V35.3437H128.468L128.713 36.2666C128.93 36.4033 129.173 36.4717 129.442 36.4717C129.644 36.4717 129.849 36.4261 130.058 36.3349C130.168 36.2856 130.259 36.2134 130.331 36.1185C130.403 36.0235 130.443 35.9115 130.451 35.7823C130.439 35.4785 130.282 35.2259 129.978 35.0246C129.864 34.9525 129.71 34.8727 129.516 34.7854C129.323 34.6942 129.197 34.6353 129.14 34.6088C128.453 34.3277 128.109 33.9441 128.109 33.458C128.109 33.1541 128.227 32.8883 128.463 32.6604C128.698 32.4325 129.034 32.3186 129.471 32.3186C129.695 32.3186 129.927 32.3546 130.166 32.4268C130.405 32.4952 130.605 32.6053 130.764 32.7572V33.589H130.474L130.212 32.7231C129.999 32.6091 129.771 32.5521 129.528 32.5521C129.285 32.5521 129.082 32.611 128.918 32.7288C128.755 32.8427 128.673 33.0022 128.673 33.2073C128.673 33.4466 128.774 33.6384 128.975 33.7827C129.146 33.908 129.327 34.0144 129.516 34.1017C129.706 34.1853 129.824 34.2385 129.87 34.2612C130.641 34.5879 131.026 35.0094 131.026 35.526C131.026 35.7842 130.939 36.0045 130.764 36.1868C130.445 36.5248 130.01 36.6939 129.46 36.6939ZM132.266 33.8795H133.098V34.1188H132.266V35.8849C132.266 36.109 132.292 36.2647 132.346 36.352C132.399 36.4356 132.484 36.4774 132.602 36.4774C132.72 36.4774 132.879 36.4489 133.08 36.3919V36.6027C132.815 36.6749 132.598 36.7109 132.431 36.7109C131.968 36.7109 131.736 36.4318 131.736 35.8735V34.1188H131.246V33.8795H131.736V33.2928L132.266 32.9908V33.8795ZM136.289 36.6426H135.287V36.0672C135.108 36.485 134.795 36.6939 134.347 36.6939C134.047 36.6939 133.819 36.6293 133.663 36.5002C133.507 36.3672 133.43 36.183 133.43 35.9475C133.43 35.6133 133.576 35.3741 133.868 35.2297C134.164 35.0816 134.634 35.0018 135.275 34.9905V34.7455C135.275 34.4758 135.22 34.2935 135.11 34.1986C135 34.0998 134.837 34.0505 134.62 34.0505C134.404 34.0505 134.216 34.0998 134.056 34.1986L133.868 34.7626H133.657V34.1188C133.752 34.0391 133.883 33.9726 134.051 33.9194C134.218 33.8625 134.4 33.834 134.597 33.834C135 33.834 135.302 33.9118 135.503 34.0675C135.708 34.2195 135.811 34.491 135.811 34.8822V36.3008L136.289 36.4318V36.6426ZM134.495 36.4546C134.738 36.4546 134.928 36.3615 135.065 36.1754C135.205 35.9855 135.275 35.657 135.275 35.1898C134.622 35.1898 134.223 35.2905 134.079 35.4918C134.011 35.5867 133.976 35.7273 133.976 35.9134C133.976 36.0995 134.016 36.2362 134.096 36.3235C134.18 36.4109 134.313 36.4546 134.495 36.4546ZM137.651 33.8795H138.483V34.1188H137.651V35.8849C137.651 36.109 137.678 36.2647 137.731 36.352C137.784 36.4356 137.87 36.4774 137.987 36.4774C138.105 36.4774 138.265 36.4489 138.466 36.3919V36.6027C138.2 36.6749 137.984 36.7109 137.816 36.7109C137.353 36.7109 137.121 36.4318 137.121 35.8735V34.1188H136.631V33.8795H137.121V33.2928L137.651 32.9908V33.8795ZM138.782 33.8795H139.728V35.5829C139.728 35.883 139.766 36.0957 139.842 36.221C139.921 36.3463 140.05 36.409 140.229 36.409C140.495 36.409 140.704 36.2837 140.856 36.033C141.007 35.7823 141.083 35.3987 141.083 34.8822V34.1644L140.668 34.0903V33.8795H141.613V36.3008L142.063 36.4318V36.6426H141.118V35.8735C141.019 36.1431 140.88 36.3501 140.702 36.4945C140.527 36.635 140.335 36.7052 140.126 36.7052C139.503 36.7052 139.192 36.3634 139.192 35.6798V34.1644L138.782 34.0903V33.8795ZM144.597 35.8279C144.597 36.0824 144.502 36.2875 144.312 36.4432C144.122 36.5951 143.83 36.6711 143.435 36.6711C143.044 36.6711 142.738 36.5666 142.518 36.3577V35.6969H142.74L142.905 36.2552C143.038 36.3881 143.251 36.4546 143.543 36.4546C143.748 36.4546 143.904 36.409 144.01 36.3179C144.117 36.2267 144.17 36.1166 144.17 35.9874C144.17 35.8583 144.115 35.7576 144.005 35.6855C143.895 35.6133 143.676 35.526 143.35 35.4234C143.027 35.3171 142.801 35.2069 142.672 35.093C142.542 34.9791 142.478 34.81 142.478 34.586C142.478 34.3581 142.571 34.1701 142.757 34.022C142.943 33.8738 143.217 33.7998 143.577 33.7998C143.938 33.7998 144.229 33.8852 144.449 34.0561V34.7113H144.227L144.05 34.1644C143.925 34.0656 143.758 34.0163 143.549 34.0163C143.135 34.0163 142.928 34.1644 142.928 34.4606C142.928 34.5708 142.987 34.6676 143.105 34.7512C143.226 34.8309 143.446 34.9202 143.765 35.0189C144.084 35.1177 144.303 35.2297 144.421 35.3551C144.538 35.4766 144.597 35.6342 144.597 35.8279Z" fill="#4B4B4B"/>
<defs>
<linearGradient id="paint0_linear_473_6319" x1="0.654297" y1="20.6813" x2="43.5777" y2="20.6813" gradientUnits="userSpaceOnUse">
<stop stop-color="#ABA7F9"/>
<stop offset="0.505208" stop-color="#75C1E6"/>
<stop offset="1" stop-color="#6CE4C0"/>
</linearGradient>
<linearGradient id="paint1_linear_473_6319" x1="0.654297" y1="20.6813" x2="43.5777" y2="20.6813" gradientUnits="userSpaceOnUse">
<stop stop-color="#ABA7F9"/>
<stop offset="0.505208" stop-color="#75C1E6"/>
<stop offset="1" stop-color="#6CE4C0"/>
</linearGradient>
<linearGradient id="paint2_linear_473_6319" x1="0.654297" y1="20.6813" x2="43.5777" y2="20.6813" gradientUnits="userSpaceOnUse">
<stop stop-color="#ABA7F9"/>
<stop offset="0.505208" stop-color="#75C1E6"/>
<stop offset="1" stop-color="#6CE4C0"/>
</linearGradient>
<linearGradient id="paint3_linear_473_6319" x1="0.654297" y1="20.6813" x2="43.5777" y2="20.6813" gradientUnits="userSpaceOnUse">
<stop stop-color="#ABA7F9"/>
<stop offset="0.505208" stop-color="#75C1E6"/>
<stop offset="1" stop-color="#6CE4C0"/>
</linearGradient>
</defs>
</svg>
