<svg width="24" height="24" viewBox="0 0 24 24" fill="none" xmlns="http://www.w3.org/2000/svg">
<path fill-rule="evenodd" clip-rule="evenodd" d="M12.3236 11.6746L17.6536 6.34461C17.6536 3.40087 15.2673 1.01465 12.3236 1.01465C9.37987 1.01465 6.99365 3.40087 6.99365 6.34461L12.3236 11.6746Z" stroke="white" stroke-width="1.67214" stroke-linecap="round" stroke-linejoin="round"/>
<path d="M12.3235 11.6747L6.99353 17.0046C4.0498 17.0046 1.66357 14.6184 1.66357 11.6747C1.66357 8.73095 4.0498 6.34473 6.99353 6.34473L12.3235 11.6747ZM12.3235 11.6747L17.6534 6.34473C20.5972 6.34473 22.9834 8.73095 22.9834 11.6747C22.9834 14.6184 20.5972 17.0046 17.6534 17.0046L12.3235 11.6747Z" stroke="white" stroke-width="1.67214" stroke-linecap="round" stroke-linejoin="round"/>
<path fill-rule="evenodd" clip-rule="evenodd" d="M12.3236 22.3347C15.2673 22.3347 17.6536 19.9485 17.6536 17.0048L12.3236 11.6748L6.99365 17.0048C6.99365 19.9485 9.37987 22.3347 12.3236 22.3347Z" stroke="white" stroke-width="1.67214" stroke-linecap="round" stroke-linejoin="round"/>
</svg>
