<svg width="23" height="24" viewBox="0 0 23 24" fill="none" xmlns="http://www.w3.org/2000/svg">
<path fill-rule="evenodd" clip-rule="evenodd" d="M16.4504 22.8304H7.06478C3.6172 22.8304 0.972345 21.565 1.72361 16.4719L2.59837 9.56957C3.06147 7.02826 4.65662 6.05566 6.05624 6.05566H17.5001C18.9203 6.05566 20.4229 7.10147 20.958 9.56957L21.8328 16.4719C22.4708 20.9898 19.898 22.8304 16.4504 22.8304Z" stroke="white" stroke-width="1.2201" stroke-linecap="round" stroke-linejoin="round"/>
<path d="M16.6057 5.80441C16.6057 3.07822 14.4309 0.868208 11.7482 0.868208V0.868208C10.4563 0.862646 9.21552 1.38025 8.30011 2.30657C7.3847 3.23289 6.87011 4.49162 6.87012 5.80441H6.87012" stroke="white" stroke-width="1.2201" stroke-linecap="round" stroke-linejoin="round"/>
<path d="M15.0823 10.9497H15.0308" stroke="white" stroke-width="1.74811" stroke-linecap="round" stroke-linejoin="round"/>
<path d="M8.52711 10.9497H8.47565" stroke="white" stroke-width="1.74811" stroke-linecap="round" stroke-linejoin="round"/>
</svg>
