<svg width="23" height="22" viewBox="0 0 23 22" fill="none" xmlns="http://www.w3.org/2000/svg">
<path d="M11.6108 6.69922C10.5214 6.69922 9.47672 7.13196 8.70644 7.90224C7.93616 8.67252 7.50342 9.71725 7.50342 10.8066C7.50342 11.8959 7.93616 12.9407 8.70644 13.7109C9.47672 14.4812 10.5214 14.914 11.6108 14.914C12.7001 14.914 13.7449 14.4812 14.5151 13.7109C15.2854 12.9407 15.7182 11.8959 15.7182 10.8066C15.7182 9.71725 15.2854 8.67252 14.5151 7.90224C13.7449 7.13196 12.7001 6.69922 11.6108 6.69922ZM11.6108 13.4741C10.9031 13.4741 10.2244 13.1929 9.72397 12.6925C9.22355 12.1921 8.94242 11.5134 8.94242 10.8057C8.94242 10.098 9.22355 9.4193 9.72397 8.91888C10.2244 8.41846 10.9031 8.13733 11.6108 8.13733C12.3185 8.13733 12.9972 8.41846 13.4976 8.91888C13.998 9.4193 14.2792 10.098 14.2792 10.8057C14.2792 11.5134 13.998 12.1921 13.4976 12.6925C12.9972 13.1929 12.3185 13.4741 11.6108 13.4741Z" fill="#4B4B4B"/>
<path d="M15.8794 7.50593C16.4083 7.50593 16.837 7.07722 16.837 6.54838C16.837 6.01953 16.4083 5.59082 15.8794 5.59082C15.3506 5.59082 14.9219 6.01953 14.9219 6.54838C14.9219 7.07722 15.3506 7.50593 15.8794 7.50593Z" fill="#4B4B4B"/>
<path d="M19.1929 5.57343C18.9873 5.0424 18.673 4.56016 18.2703 4.15757C17.8675 3.75499 17.3852 3.44093 16.8541 3.23549C16.2326 3.0022 15.576 2.87605 14.9123 2.86242C14.0569 2.82511 13.786 2.81445 11.6168 2.81445C9.44767 2.81445 9.16964 2.81445 8.32134 2.86242C7.65815 2.87535 7.00204 3.00152 6.38136 3.23549C5.85011 3.44069 5.36763 3.75466 4.96486 4.15728C4.56209 4.5599 4.24793 5.04226 4.04253 5.57343C3.80919 6.19487 3.68333 6.8515 3.67035 7.51519C3.63215 8.36971 3.62061 8.64063 3.62061 10.8107C3.62061 12.9798 3.62061 13.2561 3.67035 14.1062C3.68367 14.7706 3.80892 15.4261 4.04253 16.0488C4.24851 16.5798 4.56297 17.062 4.96584 17.4645C5.3687 17.8671 5.85111 18.1812 6.38224 18.3867C7.00175 18.6294 7.65813 18.7646 8.32312 18.7865C9.17852 18.8238 9.44945 18.8353 11.6186 18.8353C13.7878 18.8353 14.0658 18.8353 14.9141 18.7865C15.5777 18.773 16.2343 18.6471 16.8559 18.4143C17.3868 18.2084 17.869 17.894 18.2717 17.4913C18.6744 17.0887 18.9888 16.6064 19.1947 16.0755C19.4283 15.4537 19.5535 14.7981 19.5669 14.1337C19.6051 13.2792 19.6166 13.0083 19.6166 10.8382C19.6166 8.66817 19.6166 8.3928 19.5669 7.54273C19.5565 6.86966 19.43 6.20343 19.1929 5.57343ZM18.111 14.0404C18.1053 14.5524 18.0118 15.0595 17.8347 15.5398C17.7013 15.8853 17.4971 16.1989 17.2352 16.4607C16.9733 16.7224 16.6595 16.9265 16.314 17.0597C15.839 17.2359 15.3372 17.3294 14.8306 17.3359C13.9867 17.375 13.7487 17.3848 11.5849 17.3848C9.41925 17.3848 9.19807 17.3848 8.33822 17.3359C7.83184 17.3297 7.33032 17.2363 6.85569 17.0597C6.50899 16.9273 6.19393 16.7236 5.9309 16.4618C5.66788 16.2 5.46274 15.8859 5.32875 15.5398C5.15416 15.0647 5.06077 14.5635 5.0525 14.0573C5.0143 13.2135 5.00542 12.9754 5.00542 10.8116C5.00542 8.64685 5.00542 8.42567 5.0525 7.56493C5.05824 7.05331 5.15168 6.54646 5.32875 6.06642C5.59968 5.36557 6.15485 4.81395 6.85569 4.5457C7.33055 4.36994 7.83193 4.27652 8.33822 4.26944C9.18296 4.23125 9.42013 4.22059 11.5849 4.22059C13.7496 4.22059 13.9716 4.22059 14.8306 4.26944C15.3373 4.27554 15.8391 4.36899 16.314 4.5457C16.6595 4.67918 16.9732 4.88342 17.2351 5.14531C17.497 5.40719 17.7013 5.72094 17.8347 6.06642C18.0093 6.5416 18.1027 7.04277 18.111 7.54894C18.1492 8.39369 18.159 8.63086 18.159 10.7956C18.159 12.9594 18.159 13.1921 18.1208 14.0413H18.111V14.0404Z" fill="#4B4B4B"/>
</svg>
