<svg width="77" height="49" viewBox="0 0 77 49" fill="none" xmlns="http://www.w3.org/2000/svg">
<path d="M57.9162 1.81133H77V4.13402L70.7224 5.57786V45.1893L77 46.5704V48.893H57.9162V46.5704L64.131 45.1265V5.64064V3.92285L57.9162 1.81133Z" fill="url(#paint0_linear_473_6355)"/>
<path d="M0 1.81133H19.0838V4.13402L12.869 5.57786V46.1309H28.9396L31.7661 46.8934L31.8536 37.0285H34.6521V48.893H0V46.5704L6.27756 45.1265V5.64064L0 4.13402V1.81133Z" fill="url(#paint1_linear_473_6355)"/>
<path d="M50.6615 1.81133H66.6065V4.13402L61.0195 5.51509L43.9445 21.5856L63.4677 45.1893L64.131 45.1265L70.8336 48.893H57.6924L38.3575 25.1639V47.0193L57.9162 46.5704V48.893H25.5513V46.5704L31.7661 46.8934L32.166 1.81133L25.5513 4.13402L26.1572 2.51102L44.6351 1.81133V4.13402L38.3575 2.04909V23.9083L55.558 5.32676L50.6615 4.13402V1.81133Z" fill="url(#paint2_linear_473_6355)"/>
<path d="M52.0094 24.6708C52.0094 17.347 50.6911 11.8227 48.0545 8.09805C45.4598 4.37337 41.6932 2.51102 36.7549 2.51102C31.8584 2.51102 28.1337 4.41522 25.5808 8.22361C23.028 12.032 21.7515 17.5144 21.7515 24.6708C21.7515 31.8272 22.9861 37.3306 25.4553 41.1808C27.9663 44.9892 31.6701 46.8934 36.5666 46.8934C41.4631 46.8934 45.2505 45.0101 47.929 41.2436C50.6492 37.4771 52.0094 31.9528 52.0094 24.6708ZM14.4695 24.7336C14.4695 17.1587 16.5621 11.1531 20.7471 6.71699C24.9321 2.239 30.3099 0 36.8804 0C43.4928 0 48.8497 2.28085 52.951 6.84254C57.0942 11.4042 59.1658 17.3888 59.1658 24.7964C59.1658 32.2039 57.1151 38.1676 53.0138 42.6874C48.9124 47.1654 43.3045 48.893 36.5666 48.893C29.8286 48.893 24.6183 47.1863 20.5588 42.7502C16.4993 38.2722 14.4695 32.2667 14.4695 24.7336Z" fill="url(#paint3_linear_473_6355)"/>
<defs>
<linearGradient id="paint0_linear_473_6355" x1="38.5" y1="48.893" x2="38.5" y2="0.00338613" gradientUnits="userSpaceOnUse">
<stop offset="0.02" stop-color="#ABA7F9"/>
<stop offset="1" stop-color="#4494B9"/>
</linearGradient>
<linearGradient id="paint1_linear_473_6355" x1="38.5" y1="48.893" x2="38.5" y2="0.00338613" gradientUnits="userSpaceOnUse">
<stop offset="0.02" stop-color="#ABA7F9"/>
<stop offset="1" stop-color="#4494B9"/>
</linearGradient>
<linearGradient id="paint2_linear_473_6355" x1="38.5" y1="48.893" x2="38.5" y2="0.00338613" gradientUnits="userSpaceOnUse">
<stop offset="0.02" stop-color="#ABA7F9"/>
<stop offset="1" stop-color="#4494B9"/>
</linearGradient>
<linearGradient id="paint3_linear_473_6355" x1="38.5" y1="48.893" x2="38.5" y2="0.00338613" gradientUnits="userSpaceOnUse">
<stop offset="0.02" stop-color="#ABA7F9"/>
<stop offset="1" stop-color="#4494B9"/>
</linearGradient>
</defs>
</svg>
