<svg width="31" height="31" viewBox="0 0 31 31" fill="none" xmlns="http://www.w3.org/2000/svg">
<g clip-path="url(#clip0_473_6244)">
<path d="M7.56592 15.0322V23.0502H15.5838L13.9117 21.378H9.23806V16.7044L7.56592 15.0322Z" fill="white"/>
<path d="M29.1951 27.4722L26.7955 25.0392V27.2297H3.38554V23.76H5.05768V22.4223H3.38554V16.8624H5.05768V15.5247H3.38554V10.1739H5.05768V8.83615H3.38554V4.16251L16.7125 17.4142V15.0565L3.14308 1.55396C3.02613 1.43605 2.87673 1.35564 2.7139 1.32297C2.55108 1.29031 2.38222 1.30687 2.22885 1.37055C2.07547 1.43423 1.94454 1.54215 1.85274 1.68053C1.76094 1.81892 1.71243 1.98151 1.71339 2.14757V28.0658C1.71339 28.2875 1.80148 28.5002 1.95827 28.657C2.11507 28.8138 2.32772 28.9019 2.54946 28.9019H28.6015C28.7675 28.9028 28.9301 28.8543 29.0685 28.7625C29.2069 28.6707 29.3148 28.5398 29.3785 28.3864C29.4422 28.233 29.4587 28.0642 29.4261 27.9014C29.3934 27.7385 29.313 27.5891 29.1951 27.4722Z" fill="white"/>
<path d="M20.107 25.5581H23.4512C23.8947 25.5581 24.32 25.3819 24.6336 25.0683C24.9472 24.7547 25.1234 24.3294 25.1234 23.886V7.74977L23.2004 4.21319C23.0517 3.95553 22.8369 3.74221 22.5783 3.59524C22.3196 3.44827 22.0264 3.37297 21.7289 3.37712C21.4247 3.37953 21.1269 3.46489 20.8676 3.624C20.6084 3.78311 20.3974 4.00995 20.2575 4.28007L18.4348 7.76649V23.886C18.4348 24.3294 18.611 24.7547 18.9246 25.0683C19.2382 25.3819 19.6635 25.5581 20.107 25.5581ZM20.107 8.16781L21.7289 5.01582L23.4512 8.17617V20.5417H20.107V8.16781ZM20.107 21.9045H23.4512V23.9445H20.107V21.9045Z" fill="white"/>
</g>
<defs>
<clipPath id="clip0_473_6244">
<rect width="30.0986" height="30.0986" fill="white" transform="translate(0.0415039 0.475586)"/>
</clipPath>
</defs>
</svg>
