<svg width="27" height="26" viewBox="0 0 27 26" fill="none" xmlns="http://www.w3.org/2000/svg">
<path d="M16.2654 21.7766C16.2654 23.1837 13.707 24.335 13.707 24.335C13.707 24.335 11.1486 23.1837 11.1486 21.7766M13.707 8.98471C13.2022 8.97176 12.7216 8.76544 12.3645 8.40837C12.0075 8.0513 11.8011 7.57074 11.7882 7.06592C11.7882 6.55703 11.9904 6.06898 12.3502 5.70914C12.71 5.3493 13.1981 5.14714 13.707 5.14714C14.2159 5.14714 14.7039 5.3493 15.0638 5.70914C15.4236 6.06898 15.6258 6.55703 15.6258 7.06592C15.6128 7.57074 15.4065 8.0513 15.0494 8.40837C14.6924 8.76544 14.2118 8.97176 13.707 8.98471ZM17.9283 14.9969C18.9517 10.136 17.1608 1.30957 13.707 1.30957C10.2532 1.30957 8.33439 9.88014 9.35774 14.7411L7.31104 19.2182H10.7648L11.1486 20.4974H16.2654C16.5212 20.1137 16.3933 19.8578 16.6491 19.2182H20.1029L17.9283 14.9969Z" fill="white"/>
</svg>
