<svg width="29" height="27" viewBox="0 0 29 27" fill="none" xmlns="http://www.w3.org/2000/svg">
<path d="M13.2094 3.32858C13.2094 3.07912 13.3085 2.83988 13.4849 2.66349C13.6613 2.48709 13.9005 2.388 14.15 2.388H27.3181C27.5676 2.388 27.8068 2.48709 27.9832 2.66349C28.1596 2.83988 28.2587 3.07912 28.2587 3.32858V5.20974C28.2587 5.4592 28.1596 5.69844 27.9832 5.87483C27.8068 6.05122 27.5676 6.15032 27.3181 6.15032H14.15C13.9005 6.15032 13.6613 6.05122 13.4849 5.87483C13.3085 5.69844 13.2094 5.4592 13.2094 5.20974V3.32858ZM3.80358 0.506836C2.80575 0.506836 1.84879 0.903222 1.14322 1.60879C0.437646 2.31437 0.0412598 3.27133 0.0412598 4.26916L0.0412598 8.03148C0.0412598 9.02931 0.437646 9.98627 1.14322 10.6918C1.84879 11.3974 2.80575 11.7938 3.80358 11.7938H7.56591C8.56374 11.7938 9.5207 11.3974 10.2263 10.6918C10.9318 9.98627 11.3282 9.02931 11.3282 8.03148V4.26916C11.3282 3.27133 10.9318 2.31437 10.2263 1.60879C9.5207 0.903222 8.56374 0.506836 7.56591 0.506836H3.80358ZM3.80358 15.5561C2.80575 15.5561 1.84879 15.9525 1.14322 16.6581C0.437646 17.3637 0.0412598 18.3206 0.0412598 19.3184L0.0412598 23.0808C0.0412598 24.0786 0.437646 25.0356 1.14322 25.7411C1.84879 26.4467 2.80575 26.8431 3.80358 26.8431H7.56591C8.56374 26.8431 9.5207 26.4467 10.2263 25.7411C10.9318 25.0356 11.3282 24.0786 11.3282 23.0808V19.3184C11.3282 18.3206 10.9318 17.3637 10.2263 16.6581C9.5207 15.9525 8.56374 15.5561 7.56591 15.5561H3.80358ZM5.41009 8.69741C5.32272 8.78501 5.21893 8.8545 5.10466 8.90192C4.99039 8.94934 4.86788 8.97374 4.74416 8.97374C4.62044 8.97374 4.49794 8.94934 4.38367 8.90192C4.2694 8.8545 4.1656 8.78501 4.07823 8.69741L2.19707 6.81625C2.10962 6.7288 2.04025 6.62498 1.99292 6.51072C1.94559 6.39646 1.92123 6.27399 1.92123 6.15032C1.92123 6.02665 1.94559 5.90418 1.99292 5.78992C2.04025 5.67566 2.10962 5.57184 2.19707 5.48439C2.28452 5.39694 2.38834 5.32757 2.5026 5.28024C2.61686 5.23291 2.73933 5.20855 2.863 5.20855C2.98668 5.20855 3.10914 5.23291 3.2234 5.28024C3.33766 5.32757 3.44148 5.39694 3.52893 5.48439L4.74416 6.7015L7.84055 3.60323C7.92801 3.51578 8.03183 3.44641 8.14609 3.39908C8.26035 3.35175 8.38281 3.32739 8.50649 3.32739C8.63016 3.32739 8.75262 3.35175 8.86689 3.39908C8.98115 3.44641 9.08497 3.51578 9.17242 3.60323C9.25987 3.69068 9.32924 3.7945 9.37657 3.90876C9.42389 4.02302 9.44825 4.14548 9.44825 4.26916C9.44825 4.39283 9.42389 4.5153 9.37657 4.62956C9.32924 4.74382 9.25987 4.84764 9.17242 4.93509L5.41009 8.69741ZM5.41009 23.7467C5.32272 23.8343 5.21893 23.9038 5.10466 23.9512C4.99039 23.9986 4.86788 24.023 4.74416 24.023C4.62044 24.023 4.49794 23.9986 4.38367 23.9512C4.2694 23.9038 4.1656 23.8343 4.07823 23.7467L2.19707 21.8655C2.02045 21.6889 1.92123 21.4494 1.92123 21.1996C1.92123 20.9498 2.02045 20.7103 2.19707 20.5337C2.37369 20.3571 2.61323 20.2578 2.863 20.2578C3.11277 20.2578 3.35232 20.3571 3.52893 20.5337L4.74416 21.7508L7.84055 18.6525C8.01717 18.4759 8.25671 18.3767 8.50649 18.3767C8.75626 18.3767 8.9958 18.4759 9.17242 18.6525C9.34903 18.8291 9.44825 19.0687 9.44825 19.3184C9.44825 19.5682 9.34903 19.8078 9.17242 19.9844L5.41009 23.7467ZM13.2094 18.3779C13.2094 18.1284 13.3085 17.8892 13.4849 17.7128C13.6613 17.5364 13.9005 17.4373 14.15 17.4373H27.3181C27.5676 17.4373 27.8068 17.5364 27.9832 17.7128C28.1596 17.8892 28.2587 18.1284 28.2587 18.3779V20.259C28.2587 20.5085 28.1596 20.7477 27.9832 20.9241C27.8068 21.1005 27.5676 21.1996 27.3181 21.1996H14.15C13.9005 21.1996 13.6613 21.1005 13.4849 20.9241C13.3085 20.7477 13.2094 20.5085 13.2094 20.259V18.3779ZM13.2094 8.97206C13.2094 8.7226 13.3085 8.48336 13.4849 8.30697C13.6613 8.13058 13.9005 8.03148 14.15 8.03148H23.5558C23.8052 8.03148 24.0445 8.13058 24.2209 8.30697C24.3973 8.48336 24.4964 8.7226 24.4964 8.97206C24.4964 9.22152 24.3973 9.46076 24.2209 9.63715C24.0445 9.81355 23.8052 9.91264 23.5558 9.91264H14.15C13.9005 9.91264 13.6613 9.81355 13.4849 9.63715C13.3085 9.46076 13.2094 9.22152 13.2094 8.97206ZM13.2094 24.0214C13.2094 23.7719 13.3085 23.5327 13.4849 23.3563C13.6613 23.1799 13.9005 23.0808 14.15 23.0808H23.5558C23.8052 23.0808 24.0445 23.1799 24.2209 23.3563C24.3973 23.5327 24.4964 23.7719 24.4964 24.0214C24.4964 24.2708 24.3973 24.5101 24.2209 24.6864C24.0445 24.8628 23.8052 24.9619 23.5558 24.9619H14.15C13.9005 24.9619 13.6613 24.8628 13.4849 24.6864C13.3085 24.5101 13.2094 24.2708 13.2094 24.0214Z" fill="white"/>
</svg>
