<svg width="28" height="28" viewBox="0 0 28 28" fill="none" xmlns="http://www.w3.org/2000/svg">
<path d="M14.0227 0.516602C11.3683 0.516602 8.7734 1.30374 6.5663 2.77847C4.35923 4.25321 2.63901 6.34931 1.62319 8.80172C0.60738 11.2541 0.341592 13.9526 0.859453 16.5561C1.37731 19.1595 2.65555 21.551 4.53253 23.428C6.40951 25.3049 8.80092 26.5832 11.4044 27.101C14.0078 27.6188 16.7064 27.3531 19.1587 26.3372C21.6112 25.3214 23.7072 23.6012 25.182 21.3941C26.6567 19.1871 27.4439 16.5922 27.4439 13.9377C27.4398 10.3795 26.0245 6.96809 23.5084 4.45202C20.9924 1.93594 17.581 0.52064 14.0227 0.516602ZM25.1977 18.8182H21.4226C21.7321 17.4147 21.9039 15.9845 21.9357 14.5478H26.1926C26.1238 16.02 25.7866 17.4671 25.1977 18.8182ZM1.85278 14.5478H6.10973C6.14152 15.9845 6.31337 17.4147 6.62279 18.8182H2.84778C2.25885 17.4671 1.92165 16.02 1.85278 14.5478ZM2.84778 9.05733H6.62279C6.31337 10.4608 6.14152 11.891 6.10973 13.3277H1.85278C1.92165 11.8555 2.25885 10.4084 2.84778 9.05733ZM14.6328 7.83723V1.79283C16.8527 2.15886 18.7592 4.49902 19.8255 7.83723H14.6328ZM20.169 9.05733C20.4997 10.4579 20.6838 11.8891 20.718 13.3277H14.6328V9.05733H20.169ZM13.4127 1.79283V7.83723H8.2199C9.28627 4.49902 11.1927 2.15886 13.4127 1.79283ZM13.4127 9.05733V13.3277H7.32923C7.36351 11.8891 7.54756 10.4579 7.87827 9.05733H13.4127ZM7.32923 14.5478H13.4127V18.8182H7.87644C7.54634 17.4175 7.3629 15.9864 7.32923 14.5478ZM13.4127 20.0383V26.0827C11.1927 25.7166 9.28627 23.3765 8.2199 20.0383H13.4127ZM14.6328 26.0827V20.0383H19.8255C18.7592 23.3765 16.8527 25.7166 14.6328 26.0827ZM14.6328 18.8182V14.5478H20.7162C20.6819 15.9864 20.4979 17.4176 20.1672 18.8182H14.6328ZM21.9357 13.3277C21.9039 11.891 21.7321 10.4608 21.4226 9.05733H25.1977C25.7866 10.4084 26.1238 11.8555 26.1926 13.3277H21.9357ZM24.573 7.83723H21.1073C20.5778 5.84937 19.5821 4.01634 18.2028 2.49012C20.8848 3.47511 23.1381 5.36655 24.573 7.83723ZM9.84264 2.49012C8.46331 4.01634 7.46765 5.84937 6.93818 7.83723H3.47247C4.90735 5.36655 7.16067 3.47511 9.84264 2.49012ZM3.47247 20.0383H6.93818C7.46765 22.0261 8.46331 23.8591 9.84264 25.3854C7.16067 24.4004 4.90735 22.5089 3.47247 20.0383ZM18.2028 25.3854C19.5821 23.8591 20.5778 22.0261 21.1073 20.0383H24.573C23.1381 22.5089 20.8848 24.4004 18.2028 25.3854Z" fill="white"/>
</svg>
