<svg width="32" height="32" viewBox="0 0 32 32" fill="none" xmlns="http://www.w3.org/2000/svg">
<path d="M3.46094 11.0256V8.4985C3.46094 6.72954 3.46094 5.84506 3.80462 5.16907C4.10752 4.57439 4.59099 4.09092 5.18567 3.78802C5.86166 3.44434 6.74614 3.44434 8.5151 3.44434C10.2841 3.44434 11.1685 3.44434 11.8445 3.78802C12.4392 4.09092 12.9227 4.57439 13.2256 5.16907C13.5693 5.84506 13.5693 6.72954 13.5693 8.4985V23.661C13.5693 25.4299 13.5693 26.3144 13.2256 26.9904C12.9225 27.5846 12.439 28.0676 11.8445 28.3702C11.1685 28.7151 10.2841 28.7152 8.5151 28.7152C6.74614 28.7152 5.86166 28.7151 5.18567 28.3702C4.59118 28.0676 4.10774 27.5846 3.80462 26.9904C3.46094 26.3144 3.46094 25.4299 3.46094 23.661V16.0797M9.77864 24.9245H7.25156" stroke="white" stroke-width="1.26354" stroke-linecap="round"/>
<path d="M17.7577 7.14458L15.0512 9.85109C14.3209 10.5814 13.9557 10.9466 13.7624 11.4116C13.5703 11.8753 13.5703 12.3921 13.5703 13.4256V25.6264L24.9043 14.2924C26.1552 13.0415 26.7819 12.4161 27.0157 11.6946C27.2218 11.0602 27.2218 10.3768 27.0157 9.74242C26.7819 9.02221 26.1564 8.39549 24.9055 7.14458C23.6546 5.89368 23.0279 5.26823 22.3077 5.03447C21.6733 4.82835 20.9899 4.82835 20.3555 5.03447C19.634 5.26823 19.0086 5.89368 17.7577 7.14458Z" stroke="white" stroke-width="1.26354"/>
<path d="M23.2568 28.1885V29.2412H22.8359V28.1885H23.2568ZM16.9395 28.1885V29.2412H8.93652V28.1885H16.9395ZM26.8564 29C26.6503 29.0684 26.4332 29.1186 26.1992 29.1523L25.7959 29.1963C25.3351 29.2338 24.7792 29.2381 24.0996 29.2393V28.1865C24.5745 28.1857 24.9686 28.1841 25.3057 28.1709L25.709 28.1484H25.71C25.9768 28.1268 26.19 28.0907 26.3701 28.0449L26.8564 29ZM17.7812 28.4014C17.8486 28.4917 17.8866 28.6009 17.8867 28.7148C17.8867 28.8285 17.8481 28.9372 17.7812 29.0273V28.4014ZM21.9932 29.0273C21.9264 28.9372 21.8877 28.8284 21.8877 28.7148C21.8878 28.6013 21.9263 28.4925 21.9932 28.4023V29.0273ZM28.3623 27.4502L28.6406 27.5918C28.3687 28.002 28.0191 28.353 27.6094 28.625L27.1279 27.6787C27.3453 27.5196 27.537 27.3286 27.6963 27.1113L28.3623 27.4502ZM29.2568 24.082C29.2562 24.5581 29.2552 24.973 29.2402 25.3369L29.2139 25.7773L29.2129 25.7793C29.1815 26.1717 29.1243 26.5189 29.0186 26.8379L28.6504 26.6514L28.0625 26.3506C28.1076 26.1709 28.1425 25.9585 28.1641 25.6934C28.1994 25.2761 28.2032 24.7601 28.2041 24.082H29.2568ZM29.0176 20.4824C29.086 20.6888 29.1352 20.9063 29.1689 21.1406L29.2129 21.543H29.2139C29.2514 22.004 29.2557 22.5604 29.2568 23.2402H28.2041C28.2033 22.7649 28.2017 22.3705 28.1885 22.0332L28.165 21.6299V21.6289L28.1279 21.291C28.1106 21.1721 28.088 21.0663 28.0635 20.9697L29.0176 20.4824ZM27.6084 18.6973C28.0184 18.9691 28.3695 19.3191 28.6416 19.7285L27.6963 20.2109C27.5371 19.9931 27.3456 19.8009 27.1279 19.6416L27.6084 18.6973ZM24.0996 18.082C24.5757 18.0826 24.9906 18.0837 25.3545 18.0986L25.7949 18.126H25.7959C26.1885 18.1573 26.5364 18.2145 26.8555 18.3203L26.3691 19.2754C26.1889 19.2301 25.9754 19.1964 25.709 19.1748H25.71C25.2928 19.1395 24.7774 19.1356 24.0996 19.1348V18.082ZM23.2568 18.0801V19.1338H20.9404V18.0801H23.2568Z" stroke="white" stroke-width="0.842361"/>
</svg>
