<svg width="95" height="90" viewBox="0 0 95 90" fill="none" xmlns="http://www.w3.org/2000/svg">
<path d="M47.0876 18.3827C47.0876 18.3827 26.1563 -20.8112 4.61838 15.2608C-16.9196 51.2575 43.8645 90 43.8645 90C43.8645 90 94.0692 66.3783 94.9793 35.3467C95.8893 4.31505 66.578 -2.26741 56.8707 8.1517C47.1634 18.5332 47.0876 18.3827 47.0876 18.3827Z" fill="#E16088"/>
<path d="M30.4328 46.195C30.4328 46.195 29.2856 46.2719 29.018 45.6186C28.7503 44.9654 28.712 44.7733 28.712 44.7733C28.712 44.7733 28.6356 44.7733 28.712 44.1969C28.7885 43.6205 28.7885 43.6205 28.7885 43.6205C28.5973 43.2362 28.5208 43.5052 28.5208 42.9673C28.5208 42.4293 28.4444 42.3909 28.712 42.1988C28.9797 42.0835 29.668 41.3534 30.5093 41.046C31.3506 40.6617 32.4595 40.0854 32.4595 39.6242C32.4595 39.1631 32.4595 37.9335 32.4595 37.3956C32.4595 36.8576 33.3008 35.7817 33.3008 35.7817C33.3008 35.7817 34.4098 33.4377 37.4307 32.5924C37.4307 32.5924 42.8225 32.5155 43.8932 32.7845C44.9639 33.0535 46.5318 33.6299 47.0671 34.0141C47.6025 34.3984 50.3175 36.7423 50.3175 36.7423L50.4322 37.5108C50.4322 37.5108 50.4322 38.1641 50.8911 37.6261C51.35 37.0882 54.2562 32.9382 54.7151 32.3618C55.1739 31.7854 58.8067 27.9429 59.2656 27.597C59.7244 27.2896 62.5159 25.7142 63.5484 25.5221C64.5809 25.3299 68.6725 25.5221 68.6725 25.5221C68.6725 25.5221 69.2079 25.791 69.8197 25.7142C70.3933 25.6373 71.77 23.9466 71.77 23.9466C71.77 23.9466 75.0586 20.642 75.6704 19.374C76.244 18.2212 77.4294 15.8772 77.353 14.3018C77.2765 12.7263 77.353 10.5361 77.353 10.5361L76.397 8C76.397 8 77.6971 8.26898 78.3472 9.11434C78.9973 9.9597 79.7621 11.074 79.915 12.6879C80.1062 14.3018 79.915 16.5305 79.915 16.5305C79.915 16.5305 79.4561 19.6045 78.6913 21.1031C77.9266 22.6017 76.0528 24.5998 75.3263 25.9832C74.5615 27.4049 74.1791 27.6739 74.2938 28.2503C74.4085 28.8267 74.5997 29.7489 75.3263 31.3627C76.091 32.9766 76.7411 33.7067 76.8176 35.0132C76.8941 36.3196 76.8941 41.6608 76.8941 42.1219C76.8941 42.583 76.7029 42.9673 76.244 44.2737C75.7851 45.5802 75.5939 45.8492 75.5939 45.8492C75.5939 45.8492 75.4792 51.6515 75.5174 52.7658C75.5939 53.8033 75.7086 57.3769 75.7086 57.3769C75.7086 57.3769 76.4352 60.9504 76.5499 62.3722C76.6646 63.7939 76.4734 64.6009 76.4734 64.6009C76.4734 64.6009 78.156 67.6749 78.6149 67.9055C78.6149 67.9055 79.3797 69.0582 77.8501 69.7883C76.2822 70.5568 75.2115 70.0957 75.2115 70.0957C75.2115 70.0957 75.4027 70.4031 74.7527 70.211C74.0261 70.0189 72.3436 68.0592 72.3436 68.0592C72.3436 68.0592 72.726 66.3684 73.6437 65.331C73.6437 65.331 73.8349 62.4106 73.6437 61.6805C73.4525 60.9504 73.2613 60.643 73.2613 60.643C73.2613 60.643 73.4525 57.7227 72.9554 56.6084C72.42 55.5709 71.464 51.8052 71.464 51.8052C71.464 51.8052 69.8962 48.4237 69.5903 48.0779C69.2844 47.7705 68.6725 44.4274 68.6725 44.4274C68.6725 44.4274 64.8486 52.3047 64.7721 52.5737C64.6956 52.8426 64.3132 53.8801 63.8543 54.3797C63.3955 54.9176 62.9366 55.5324 62.9366 55.5324C62.9366 55.5324 63.9691 55.8398 63.9691 56.7621C63.8926 57.6843 63.8926 57.9148 63.4337 58.4528C62.9748 59.0292 61.8276 60.6046 61.1011 61.181C60.3745 61.7574 59.3038 62.6027 58.9596 62.6027C58.6537 62.6027 58.3096 62.3338 58.0419 62.718C57.7742 63.1023 56.8947 64.2166 56.3594 64.524C55.824 64.8314 55.4034 64.9851 55.4034 64.9851L55.4798 70.9027C55.4798 70.9027 54.5621 71.8249 52.6883 72.5934C50.7381 73.3619 50.5469 73.1698 49.5909 73.7462C48.5584 74.3225 47.373 75.0526 47.1436 76.2822C46.8759 77.5119 47.2201 78.242 46.1876 78.242C45.1551 78.242 45.2316 77.704 44.3138 78.242C43.3961 78.7799 43.1667 79.2794 42.0577 78.8183C40.9105 78.3572 40.834 78.0498 40.2604 78.0498C39.6868 78.0498 39.6868 76.4744 39.9545 75.898C40.2222 75.3216 41.2547 73.7462 42.2871 73.4772C43.3196 73.2082 45.0786 70.6721 45.0786 70.6721L49.7439 68.3281C49.7439 68.3281 50.2792 65.5231 48.7114 64.5624C47.1436 63.6018 44.6962 63.4481 44.6962 63.4481L44.0462 63.256C44.0462 63.256 43.2049 63.4481 41.9048 63.4481C40.6046 63.4481 39.3809 63.1791 39.3809 63.1791C39.3809 63.1791 36.0158 65.8305 34.7922 68.7124C34.7922 68.7124 30.1269 69.8652 29.4004 70.0189C28.7503 70.1342 23.1673 71.8249 22.6702 71.9017C22.1348 71.9786 20.1463 72.3628 19.8022 72.3628C19.4963 72.3628 18.2344 74.0536 16.743 74.1304C15.1752 74.2073 15.1752 74.2073 15.1752 74.2073C15.1752 74.2073 15.0987 74.5147 13.6074 74.5147C12.116 74.5147 9.01859 74.2073 8.75091 74.1304C8.48324 74.0536 8.36852 73.4772 7.83316 73.2082C7.37429 73.0161 6.80069 73.0161 7.06837 72.286C7.33605 71.6328 9.59219 70.5184 9.59219 70.5184C9.59219 70.5184 13.6074 70.5953 14.0662 70.4416C14.5251 70.3263 17.699 69.5193 19.7639 67.5212C19.7639 67.5212 23.0526 67.2138 24.7351 66.2147C26.4177 65.2541 27.1442 64.9851 27.8325 64.6393C28.5591 64.3319 29.4004 64.3319 30.2416 63.8708C31.0064 63.4865 32.4978 63.0254 33.1096 61.0657C33.6832 59.106 33.1861 58.9139 33.3773 58.5296C33.5685 58.0685 34.7539 56.9542 34.7922 56.3778C34.8686 55.8014 36.0923 52.0741 36.0923 52.0741C36.0923 52.0741 35.7864 52.3431 35.7864 51.1135C35.7864 49.8839 36.0923 48.9617 36.0923 48.9617L31.6183 48.7695C31.6183 48.7695 30.3181 48.4621 30.3181 47.6552C29.9357 47.3862 30.4328 46.195 30.4328 46.195Z" fill="white"/>
</svg>
