<svg width="23" height="22" viewBox="0 0 23 22" fill="none" xmlns="http://www.w3.org/2000/svg">
<path d="M2.60156 7.49133V5.71167C2.60156 4.4659 2.60156 3.84302 2.8436 3.36696C3.05691 2.94817 3.39739 2.60769 3.81618 2.39438C4.29224 2.15234 4.91512 2.15234 6.16088 2.15234C7.40665 2.15234 8.02953 2.15234 8.50559 2.39438C8.92438 2.60769 9.26486 2.94817 9.47817 3.36696C9.72021 3.84302 9.72021 4.4659 9.72021 5.71167V16.3896C9.72021 17.6354 9.72021 18.2583 9.47817 18.7343C9.26471 19.1528 8.92425 19.4929 8.50559 19.706C8.02953 19.949 7.40665 19.949 6.16088 19.949C4.91512 19.949 4.29224 19.949 3.81618 19.706C3.39752 19.4929 3.05706 19.1528 2.8436 18.7343C2.60156 18.2583 2.60156 17.6354 2.60156 16.3896V11.0506M7.05072 17.2795H5.27105" stroke="white" stroke-width="0.889831" stroke-linecap="round"/>
<path d="M12.6686 4.75895L10.7626 6.66496C10.2483 7.17928 9.99113 7.43645 9.85498 7.7639C9.71973 8.09047 9.71973 8.45441 9.71973 9.18229V17.7745L17.7015 9.79272C18.5824 8.91178 19.0238 8.47132 19.1884 7.96322C19.3336 7.51646 19.3336 7.03521 19.1884 6.58844C19.0238 6.08123 18.5833 5.63988 17.7024 4.75895C16.8215 3.87801 16.3801 3.43755 15.8729 3.27293C15.4261 3.12777 14.9449 3.12777 14.4981 3.27293C13.99 3.43755 13.5496 3.87801 12.6686 4.75895Z" stroke="white" stroke-width="0.889831"/>
<path d="M16.543 19.5781V20.3203H16.2461V19.5781H16.543ZM12.0938 19.5781V20.3203H6.45801V19.5781H12.0938ZM19.0762 20.1484C18.9311 20.1965 18.7789 20.2331 18.6143 20.2568L18.3311 20.2881H18.3301C18.0056 20.3145 17.6142 20.3176 17.1357 20.3184V19.5762C17.4703 19.5756 17.7479 19.5757 17.9854 19.5664L18.2695 19.5498C18.4572 19.5346 18.6076 19.5097 18.7344 19.4775L19.0762 20.1484ZM12.6865 19.7285C12.7338 19.7921 12.7607 19.869 12.7607 19.9492C12.7607 20.0292 12.7336 20.1055 12.6865 20.1689V19.7285ZM15.6523 20.1689C15.6054 20.1055 15.5781 20.0291 15.5781 19.9492C15.5781 19.8691 15.6051 19.7921 15.6523 19.7285V20.1689ZM20.0752 19.0264L20.334 19.1582C20.1427 19.4468 19.8965 19.6933 19.6084 19.8848L19.2686 19.2197C19.4219 19.1076 19.5567 18.9725 19.6689 18.8193L20.0752 19.0264ZM20.7686 16.6865C20.7681 17.0219 20.7664 17.314 20.7559 17.5703L20.7373 17.8809V17.8818C20.7152 18.1579 20.673 18.4016 20.5986 18.626L20.2822 18.4658L19.9268 18.2842C19.9586 18.1574 19.9829 18.0075 19.998 17.8203C20.0229 17.5266 20.0257 17.1637 20.0264 16.6865H20.7686ZM20.5986 14.1514C20.6468 14.2966 20.6823 14.4494 20.7061 14.6143L20.7373 14.8984C20.7638 15.2229 20.7668 15.6143 20.7676 16.0928H20.0264C20.0258 15.7582 20.0249 15.4806 20.0156 15.2432L19.999 14.96V14.959L19.9727 14.7207C19.9604 14.6368 19.9441 14.5623 19.9268 14.4941L20.5986 14.1514ZM19.6074 12.8936C19.8961 13.085 20.1434 13.3318 20.335 13.6201L19.6689 13.96C19.5567 13.8065 19.422 13.6708 19.2686 13.5586L19.6074 12.8936ZM17.1357 12.4609C17.4711 12.4614 17.7632 12.4621 18.0195 12.4727L18.3301 12.4912H18.3311C18.607 12.5133 18.8508 12.5556 19.0752 12.6299L18.7344 13.3018C18.6074 13.2698 18.4571 13.2457 18.2695 13.2305H18.2705C17.9767 13.2056 17.6132 13.2028 17.1357 13.2021V12.4609ZM16.543 12.46V13.2012H14.9111V12.46H16.543Z" stroke="white" stroke-width="0.59322"/>
</svg>
