<svg width="23" height="23" viewBox="0 0 23 23" fill="none" xmlns="http://www.w3.org/2000/svg">
<g clip-path="url(#clip0_501_1741)">
<path d="M6.16113 11.2598V16.9487H11.8501L10.6637 15.7623H7.34757V12.4462L6.16113 11.2598Z" fill="white"/>
<path d="M21.5079 20.0868L19.8054 18.3605V19.9148H3.19524V17.4529H4.38168V16.5037H3.19524V12.5588H4.38168V11.6097H3.19524V7.81307H4.38168V6.86392H3.19524V3.54782L12.6512 12.9504V11.2775L3.02321 1.69697C2.94023 1.61331 2.83422 1.55625 2.71869 1.53307C2.60317 1.5099 2.48335 1.52165 2.37453 1.56683C2.26571 1.61202 2.17281 1.68858 2.10767 1.78677C2.04253 1.88496 2.00811 2.00033 2.0088 2.11815V20.508C2.0088 20.6653 2.0713 20.8162 2.18255 20.9275C2.2938 21.0387 2.44469 21.1012 2.60202 21.1012H21.0868C21.2046 21.1019 21.32 21.0675 21.4181 21.0023C21.5163 20.9372 21.5929 20.8443 21.6381 20.7355C21.6833 20.6267 21.695 20.5068 21.6718 20.3913C21.6487 20.2758 21.5916 20.1698 21.5079 20.0868Z" fill="white"/>
<path d="M15.0595 18.7295H17.4324C17.747 18.7295 18.0488 18.6045 18.2713 18.382C18.4938 18.1595 18.6188 17.8577 18.6188 17.543V6.09387L17.2544 3.58455C17.1489 3.40173 16.9965 3.25037 16.813 3.14609C16.6294 3.04181 16.4214 2.98839 16.2103 2.99133C15.9945 2.99304 15.7832 3.0536 15.5992 3.1665C15.4152 3.27939 15.2656 3.44034 15.1663 3.632L13.873 6.10573V17.543C13.873 17.8577 13.998 18.1595 14.2205 18.382C14.443 18.6045 14.7448 18.7295 15.0595 18.7295ZM15.0595 6.39048L16.2103 4.15404L17.4324 6.39641V15.1701H15.0595V6.39048ZM15.0595 16.1371H17.4324V17.5845H15.0595V16.1371Z" fill="white"/>
</g>
<defs>
<clipPath id="clip0_501_1741">
<rect width="21.3559" height="21.3559" fill="white" transform="translate(0.822266 0.932617)"/>
</clipPath>
</defs>
</svg>
