<svg width="23" height="22" viewBox="0 0 23 22" fill="none" xmlns="http://www.w3.org/2000/svg">
<g clip-path="url(#clip0_501_1752)">
<path d="M10.1655 3.4904C10.1655 3.3134 10.2358 3.14365 10.361 3.0185C10.4861 2.89334 10.6559 2.82303 10.8329 2.82303H20.1761C20.3531 2.82303 20.5228 2.89334 20.648 3.0185C20.7731 3.14365 20.8435 3.3134 20.8435 3.4904V4.82515C20.8435 5.00214 20.7731 5.17189 20.648 5.29705C20.5228 5.42221 20.3531 5.49252 20.1761 5.49252H10.8329C10.6559 5.49252 10.4861 5.42221 10.361 5.29705C10.2358 5.17189 10.1655 5.00214 10.1655 4.82515V3.4904ZM3.49176 1.48828C2.78376 1.48828 2.10477 1.76953 1.60414 2.27016C1.10351 2.77078 0.822266 3.44978 0.822266 4.15777L0.822266 6.82726C0.822266 7.53526 1.10351 8.21425 1.60414 8.71488C2.10477 9.21551 2.78376 9.49676 3.49176 9.49676H6.16125C6.86924 9.49676 7.54824 9.21551 8.04886 8.71488C8.54949 8.21425 8.83074 7.53526 8.83074 6.82726V4.15777C8.83074 3.44978 8.54949 2.77078 8.04886 2.27016C7.54824 1.76953 6.86924 1.48828 6.16125 1.48828H3.49176ZM3.49176 12.1662C2.78376 12.1662 2.10477 12.4475 1.60414 12.9481C1.10351 13.4488 0.822266 14.1277 0.822266 14.8357L0.822266 17.5052C0.822266 18.2132 1.10351 18.8922 1.60414 19.3928C2.10477 19.8935 2.78376 20.1747 3.49176 20.1747H6.16125C6.86924 20.1747 7.54824 19.8935 8.04886 19.3928C8.54949 18.8922 8.83074 18.2132 8.83074 17.5052V14.8357C8.83074 14.1277 8.54949 13.4488 8.04886 12.9481C7.54824 12.4475 6.86924 12.1662 6.16125 12.1662H3.49176ZM4.63163 7.29976C4.56964 7.36191 4.49599 7.41122 4.41491 7.44487C4.33383 7.47851 4.24691 7.49583 4.15913 7.49583C4.07135 7.49583 3.98443 7.47851 3.90335 7.44487C3.82227 7.41122 3.74862 7.36191 3.68663 7.29976L2.35188 5.96502C2.28983 5.90297 2.24061 5.82931 2.20703 5.74823C2.17345 5.66716 2.15617 5.58027 2.15617 5.49252C2.15617 5.40477 2.17345 5.31788 2.20703 5.2368C2.24061 5.15573 2.28983 5.08207 2.35188 5.02002C2.41393 4.95797 2.4876 4.90875 2.56867 4.87517C2.64974 4.84159 2.73663 4.8243 2.82438 4.8243C2.91214 4.8243 2.99903 4.84159 3.0801 4.87517C3.16117 4.90875 3.23483 4.95797 3.29688 5.02002L4.15913 5.8836L6.35612 3.68527C6.41817 3.62322 6.49183 3.574 6.57291 3.54042C6.65398 3.50684 6.74087 3.48956 6.82862 3.48956C6.91637 3.48956 7.00327 3.50684 7.08434 3.54042C7.16541 3.574 7.23907 3.62322 7.30112 3.68527C7.36317 3.74732 7.41239 3.82099 7.44597 3.90206C7.47955 3.98313 7.49684 4.07002 7.49684 4.15777C7.49684 4.24552 7.47955 4.33242 7.44597 4.41349C7.41239 4.49456 7.36317 4.56822 7.30112 4.63027L4.63163 7.29976ZM4.63163 17.9777C4.56964 18.0399 4.49599 18.0892 4.41491 18.1228C4.33383 18.1565 4.24691 18.1738 4.15913 18.1738C4.07135 18.1738 3.98443 18.1565 3.90335 18.1228C3.82227 18.0892 3.74862 18.0399 3.68663 17.9777L2.35188 16.643C2.22657 16.5177 2.15617 16.3477 2.15617 16.1705C2.15617 15.9933 2.22657 15.8233 2.35188 15.698C2.4772 15.5727 2.64716 15.5023 2.82438 15.5023C3.00161 15.5023 3.17157 15.5727 3.29688 15.698L4.15913 16.5616L6.35612 14.3632C6.48144 14.2379 6.6514 14.1675 6.82862 14.1675C7.00584 14.1675 7.17581 14.2379 7.30112 14.3632C7.42644 14.4886 7.49684 14.6585 7.49684 14.8357C7.49684 15.013 7.42644 15.1829 7.30112 15.3082L4.63163 17.9777ZM10.1655 14.1684C10.1655 13.9914 10.2358 13.8216 10.361 13.6965C10.4861 13.5713 10.6559 13.501 10.8329 13.501H20.1761C20.3531 13.501 20.5228 13.5713 20.648 13.6965C20.7731 13.8216 20.8435 13.9914 20.8435 14.1684V15.5031C20.8435 15.6801 20.7731 15.8499 20.648 15.975C20.5228 16.1002 20.3531 16.1705 20.1761 16.1705H10.8329C10.6559 16.1705 10.4861 16.1002 10.361 15.975C10.2358 15.8499 10.1655 15.6801 10.1655 15.5031V14.1684ZM10.1655 7.49464C10.1655 7.31764 10.2358 7.14789 10.361 7.02273C10.4861 6.89758 10.6559 6.82726 10.8329 6.82726H17.5066C17.6836 6.82726 17.8533 6.89758 17.9785 7.02273C18.1036 7.14789 18.174 7.31764 18.174 7.49464C18.174 7.67164 18.1036 7.84138 17.9785 7.96654C17.8533 8.0917 17.6836 8.16201 17.5066 8.16201H10.8329C10.6559 8.16201 10.4861 8.0917 10.361 7.96654C10.2358 7.84138 10.1655 7.67164 10.1655 7.49464ZM10.1655 18.1726C10.1655 17.9956 10.2358 17.8259 10.361 17.7007C10.4861 17.5755 10.6559 17.5052 10.8329 17.5052H17.5066C17.6836 17.5052 17.8533 17.5755 17.9785 17.7007C18.1036 17.8259 18.174 17.9956 18.174 18.1726C18.174 18.3496 18.1036 18.5194 17.9785 18.6445C17.8533 18.7697 17.6836 18.84 17.5066 18.84H10.8329C10.6559 18.84 10.4861 18.7697 10.361 18.6445C10.2358 18.5194 10.1655 18.3496 10.1655 18.1726Z" fill="white"/>
</g>
<defs>
<clipPath id="clip0_501_1752">
<rect width="21.3559" height="21.3559" fill="white" transform="translate(0.822266 0.15332)"/>
</clipPath>
</defs>
</svg>
