<svg width="31" height="31" viewBox="0 0 31 31" fill="none" xmlns="http://www.w3.org/2000/svg">
<g clip-path="url(#clip0_501_1653)">
<path d="M13.5948 5.19551C13.5948 4.94417 13.6947 4.70313 13.8724 4.52541C14.0501 4.34769 14.2911 4.24785 14.5425 4.24785H27.8097C28.061 4.24785 28.302 4.34769 28.4797 4.52541C28.6575 4.70313 28.7573 4.94417 28.7573 5.19551V7.09082C28.7573 7.34215 28.6575 7.58319 28.4797 7.76091C28.302 7.93863 28.061 8.03847 27.8097 8.03847H14.5425C14.2911 8.03847 14.0501 7.93863 13.8724 7.76091C13.6947 7.58319 13.5948 7.34215 13.5948 7.09082V5.19551ZM4.11826 2.35254C3.11292 2.35254 2.14876 2.75191 1.43788 3.46279C0.727005 4.17367 0.327637 5.13783 0.327637 6.14316L0.327637 9.93378C0.327637 10.9391 0.727005 11.9033 1.43788 12.6142C2.14876 13.325 3.11292 13.7244 4.11826 13.7244H7.90888C8.91422 13.7244 9.87838 13.325 10.5893 12.6142C11.3001 11.9033 11.6995 10.9391 11.6995 9.93378V6.14316C11.6995 5.13783 11.3001 4.17367 10.5893 3.46279C9.87838 2.75191 8.91422 2.35254 7.90888 2.35254H4.11826ZM4.11826 17.515C3.11292 17.515 2.14876 17.9144 1.43788 18.6253C0.727005 19.3362 0.327637 20.3003 0.327637 21.3057L0.327637 25.0963C0.327637 26.1016 0.727005 27.0658 1.43788 27.7766C2.14876 28.4875 3.11292 28.8869 4.11826 28.8869H7.90888C8.91422 28.8869 9.87838 28.4875 10.5893 27.7766C11.3001 27.0658 11.6995 26.1016 11.6995 25.0963V21.3057C11.6995 20.3003 11.3001 19.3362 10.5893 18.6253C9.87838 17.9144 8.91422 17.515 7.90888 17.515H4.11826ZM5.73686 10.6047C5.64883 10.693 5.54425 10.763 5.42912 10.8108C5.31399 10.8585 5.19056 10.8831 5.06591 10.8831C4.94127 10.8831 4.81784 10.8585 4.70271 10.8108C4.58758 10.763 4.483 10.693 4.39497 10.6047L2.49966 8.70941C2.41155 8.6213 2.34166 8.5167 2.29398 8.40158C2.24629 8.28646 2.22175 8.16308 2.22175 8.03847C2.22175 7.91387 2.24629 7.79048 2.29398 7.67536C2.34166 7.56024 2.41155 7.45564 2.49966 7.36753C2.58777 7.27942 2.69237 7.20953 2.80749 7.16185C2.92261 7.11416 3.046 7.08962 3.1706 7.08962C3.29521 7.08962 3.41859 7.11416 3.53371 7.16185C3.64883 7.20953 3.75343 7.27942 3.84154 7.36753L5.06591 8.5938L8.1856 5.47222C8.27371 5.38411 8.37831 5.31422 8.49343 5.26654C8.60855 5.21885 8.73193 5.19431 8.85654 5.19431C8.98114 5.19431 9.10453 5.21885 9.21965 5.26654C9.33477 5.31422 9.43937 5.38411 9.52748 5.47222C9.61559 5.56033 9.68548 5.66493 9.73316 5.78005C9.78085 5.89517 9.80539 6.01856 9.80539 6.14316C9.80539 6.26777 9.78085 6.39115 9.73316 6.50627C9.68548 6.62139 9.61559 6.72599 9.52748 6.8141L5.73686 10.6047ZM5.73686 25.7672C5.64883 25.8555 5.54425 25.9255 5.42912 25.9733C5.31399 26.021 5.19056 26.0456 5.06591 26.0456C4.94127 26.0456 4.81784 26.021 4.70271 25.9733C4.58758 25.9255 4.483 25.8555 4.39497 25.7672L2.49966 23.8719C2.32172 23.694 2.22175 23.4526 2.22175 23.201C2.22175 22.9493 2.32172 22.708 2.49966 22.53C2.67761 22.3521 2.91895 22.2521 3.1706 22.2521C3.42226 22.2521 3.6636 22.3521 3.84154 22.53L5.06591 23.7563L8.1856 20.6347C8.36354 20.4568 8.60489 20.3568 8.85654 20.3568C9.10819 20.3568 9.34953 20.4568 9.52748 20.6347C9.70542 20.8127 9.80539 21.054 9.80539 21.3057C9.80539 21.5573 9.70542 21.7986 9.52748 21.9766L5.73686 25.7672ZM13.5948 20.358C13.5948 20.1067 13.6947 19.8656 13.8724 19.6879C14.0501 19.5102 14.2911 19.4103 14.5425 19.4103H27.8097C28.061 19.4103 28.302 19.5102 28.4797 19.6879C28.6575 19.8656 28.7573 20.1067 28.7573 20.358V22.2533C28.7573 22.5046 28.6575 22.7457 28.4797 22.9234C28.302 23.1011 28.061 23.201 27.8097 23.201H14.5425C14.2911 23.201 14.0501 23.1011 13.8724 22.9234C13.6947 22.7457 13.5948 22.5046 13.5948 22.2533V20.358ZM13.5948 10.8814C13.5948 10.6301 13.6947 10.3891 13.8724 10.2113C14.0501 10.0336 14.2911 9.93378 14.5425 9.93378H24.019C24.2704 9.93378 24.5114 10.0336 24.6891 10.2113C24.8668 10.3891 24.9667 10.6301 24.9667 10.8814C24.9667 11.1328 24.8668 11.3738 24.6891 11.5515C24.5114 11.7293 24.2704 11.8291 24.019 11.8291H14.5425C14.2911 11.8291 14.0501 11.7293 13.8724 11.5515C13.6947 11.3738 13.5948 11.1328 13.5948 10.8814ZM13.5948 26.0439C13.5948 25.7926 13.6947 25.5516 13.8724 25.3738C14.0501 25.1961 14.2911 25.0963 14.5425 25.0963H24.019C24.2704 25.0963 24.5114 25.1961 24.6891 25.3738C24.8668 25.5516 24.9667 25.7926 24.9667 26.0439C24.9667 26.2953 24.8668 26.5363 24.6891 26.714C24.5114 26.8917 24.2704 26.9916 24.019 26.9916H14.5425C14.2911 26.9916 14.0501 26.8917 13.8724 26.714C13.6947 26.5363 13.5948 26.2953 13.5948 26.0439Z" fill="white"/>
</g>
<defs>
<clipPath id="clip0_501_1653">
<rect width="30.325" height="30.325" fill="white" transform="translate(0.327148 0.455078)"/>
</clipPath>
</defs>
</svg>
