<svg width="31" height="31" viewBox="0 0 31 31" fill="none" xmlns="http://www.w3.org/2000/svg">
<g clip-path="url(#clip0_501_1665)">
<path d="M5.0918 9.55461C5.0918 8.3482 5.57104 7.19121 6.42409 6.33816C7.27715 5.4851 8.43414 5.00586 9.64054 5.00586H21.7705C22.9769 5.00586 24.1339 5.4851 24.987 6.33816C25.84 7.19121 26.3193 8.3482 26.3193 9.55461V12.6326C25.8157 12.5742 25.3071 12.5722 24.803 12.6265V11.0709H6.60805V21.6846C6.60805 22.4889 6.92754 23.2602 7.49624 23.8289C8.06495 24.3976 8.83628 24.7171 9.64054 24.7171H14.9353C14.6022 25.1667 14.3728 25.6845 14.2636 26.2333H9.64054C8.43414 26.2333 7.27715 25.7541 6.42409 24.901C5.57104 24.048 5.0918 22.891 5.0918 21.6846V9.55461ZM20.321 14.9934L18.1376 12.81C17.9954 12.6676 17.8026 12.5876 17.6014 12.5874C17.4002 12.5873 17.2072 12.6671 17.0649 12.8092C16.9225 12.9514 16.8424 13.1443 16.8423 13.3455C16.8422 13.5466 16.9219 13.7396 17.0641 13.882L19.4567 16.2731C19.6913 15.8213 19.9793 15.3947 20.321 14.9934ZM9.64054 6.52211C8.83628 6.52211 8.06495 6.8416 7.49624 7.41031C6.92754 7.97901 6.60805 8.75034 6.60805 9.55461H24.803C24.803 8.75034 24.4835 7.97901 23.9148 7.41031C23.3461 6.8416 22.5748 6.52211 21.7705 6.52211H9.64054ZM14.347 13.882C14.4893 13.7396 14.5693 13.5466 14.5693 13.3452C14.5693 13.1439 14.4893 12.9508 14.347 12.8085C14.2046 12.6661 14.0115 12.5861 13.8102 12.5861C13.6089 12.5861 13.4158 12.6661 13.2735 12.8085L9.48285 16.5991C9.41225 16.6695 9.35624 16.7532 9.31802 16.8453C9.2798 16.9374 9.26013 17.0361 9.26013 17.1359C9.26013 17.2356 9.2798 17.3343 9.31802 17.4264C9.35624 17.5185 9.41225 17.6022 9.48285 17.6726L13.2735 21.4632C13.4158 21.6056 13.6089 21.6856 13.8102 21.6856C14.0115 21.6856 14.2046 21.6056 14.347 21.4632C14.4893 21.3209 14.5693 21.1278 14.5693 20.9265C14.5693 20.7252 14.4893 20.5321 14.347 20.3897L11.0916 17.1359L14.347 13.882ZM26.1555 14.1397C26.7105 14.2034 26.8697 14.8675 26.4739 15.2648L24.9956 16.7431C24.7833 16.9554 24.615 17.2074 24.5001 17.4847C24.3852 17.762 24.3261 18.0593 24.3261 18.3595C24.3261 18.6596 24.3852 18.9569 24.5001 19.2342C24.615 19.5115 24.7833 19.7635 24.9956 19.9758C25.2079 20.188 25.4598 20.3564 25.7372 20.4713C26.0145 20.5862 26.3117 20.6453 26.6119 20.6453C26.9121 20.6453 27.2093 20.5862 27.4867 20.4713C27.764 20.3564 28.016 20.188 28.2282 19.9758L29.7066 18.4974C30.1023 18.1017 30.768 18.2609 30.8316 18.8159C30.9372 19.717 30.8113 20.6301 30.4656 21.469C30.1199 22.3078 29.566 23.0446 28.8563 23.6098C28.1465 24.1749 27.3043 24.5496 26.4093 24.6985C25.5144 24.8475 24.5962 24.7657 23.7417 24.4609L19.6084 28.5957C19.3961 28.8079 19.1441 28.9763 18.8668 29.0912C18.5895 29.206 18.2922 29.2652 17.992 29.2652C17.6919 29.2652 17.3946 29.206 17.1173 29.0912C16.84 28.9763 16.588 28.8079 16.3757 28.5957C16.1635 28.3834 15.9951 28.1314 15.8802 27.8541C15.7653 27.5768 15.7062 27.2795 15.7062 26.9793C15.7062 26.6792 15.7653 26.3819 15.8802 26.1046C15.9951 25.8273 16.1635 25.5753 16.3757 25.363L20.509 21.2297C20.2041 20.3751 20.1223 19.4567 20.2713 18.5616C20.4203 17.6665 20.7952 16.8242 21.3605 16.1144C21.9258 15.4046 22.6628 14.8507 23.5019 14.5052C24.341 14.1596 25.2543 14.0339 26.1555 14.1397Z" fill="white"/>
</g>
<defs>
<clipPath id="clip0_501_1665">
<rect width="30.325" height="30.325" fill="white" transform="translate(0.54248 0.455078)"/>
</clipPath>
</defs>
</svg>
